<svg xmlns="http://www.w3.org/2000/svg" version="1.1" xmlns:xlink="http://www.w3.org/1999/xlink" xmlns:svgjs="http://svgjs.com/svgjs" width="512" height="512" x="0" y="0" viewBox="0 0 512 512" style="enable-background:new 0 0 512 512" xml:space="preserve" class=""><g transform="matrix(1,0,0,1,0,0)"><circle cx="256" cy="256" r="256" fill="#ffa726" fill-rule="evenodd" clip-rule="evenodd" data-original="#ffa726" class=""></circle><g fill-rule="evenodd" clip-rule="evenodd"><path d="M369.6 406H127.2c-11.3 0-20.5-9.2-20.5-20.5V109.1c0-1.8 1.5-3.3 3.3-3.3h227.3c1.8 0 3.3 1.5 3.3 3.3v43.4c0 1.8-1.5 3.3-3.3 3.3s-3.3-1.5-3.3-3.3v-40.2H113.2v273.1c0 7.7 6.3 14 14 14h242.5c1.8 0 3.3 1.5 3.3 3.3 0 1.9-1.5 3.3-3.4 3.3z" fill="#000000" data-original="#000000" class=""></path><path d="M136.6 174.6h174v-35h-174zm177.3 6.5H133.2c-1.8 0-3.3-1.5-3.3-3.3v-41.5c0-1.8 1.5-3.3 3.3-3.3h180.6c1.8 0 3.3 1.5 3.3 3.3v41.6c0 1.7-1.5 3.2-3.2 3.2zM223.6 208.6h-90.3c-1.8 0-3.3-1.5-3.3-3.3s1.5-3.3 3.3-3.3h90.3c1.8 0 3.3 1.5 3.3 3.3s-1.5 3.3-3.3 3.3zM223.6 237.1h-90.3c-1.8 0-3.3-1.5-3.3-3.3s1.5-3.3 3.3-3.3h90.3c1.8 0 3.3 1.5 3.3 3.3s-1.5 3.3-3.3 3.3zM223.6 265.5h-90.3c-1.8 0-3.3-1.5-3.3-3.3s1.5-3.3 3.3-3.3h90.3c1.8 0 3.3 1.5 3.3 3.3s-1.5 3.3-3.3 3.3zM260.4 258.9h50.3v-50.3h-50.3zm53.5 6.6H257c-1.8 0-3.3-1.5-3.3-3.3v-56.8c0-1.8 1.5-3.3 3.3-3.3h56.8c1.8 0 3.3 1.5 3.3 3.3v56.8c0 1.8-1.5 3.3-3.2 3.3zM260.4 372.5h50.3v-21.9h-50.3zm53.5 6.5H257c-1.8 0-3.3-1.5-3.3-3.3v-28.4c0-1.8 1.5-3.3 3.3-3.3h56.8c1.8 0 3.3 1.5 3.3 3.3v28.4c0 1.9-1.5 3.3-3.2 3.3zM223.6 350.6h-90.3c-1.8 0-3.3-1.5-3.3-3.3s1.5-3.3 3.3-3.3h90.3c1.8 0 3.3 1.5 3.3 3.3 0 1.9-1.5 3.3-3.3 3.3zM223.6 379h-90.3c-1.8 0-3.3-1.5-3.3-3.3s1.5-3.3 3.3-3.3h90.3c1.8 0 3.3 1.5 3.3 3.3 0 1.9-1.5 3.3-3.3 3.3zM313.9 293.9H133.2c-1.8 0-3.3-1.5-3.3-3.3s1.5-3.3 3.3-3.3h180.6c1.8 0 3.3 1.5 3.3 3.3s-1.5 3.3-3.2 3.3zM313.9 322.2H133.2c-1.8 0-3.3-1.5-3.3-3.3s1.5-3.3 3.3-3.3h180.6c1.8 0 3.3 1.5 3.3 3.3s-1.5 3.3-3.2 3.3zM340.5 155.9v214.4c0 16.1 13.1 29.2 29.2 29.2s29.2-13.1 29.2-29.2V182.8h-29.2c-1.8 0-3.3-1.5-3.3-3.3v-23.7zM369.6 406c-19.7 0-35.7-16-35.7-35.7V152.6c0-1.8 1.5-3.3 3.3-3.3h32.5c1.8 0 3.3 1.5 3.3 3.3v23.7h29.2c1.8 0 3.3 1.5 3.3 3.3v190.7c-.1 19.7-16.1 35.7-35.9 35.7z" fill="#000000" data-original="#000000" class=""></path><path d="M369.6 377c-1.8 0-3.3-1.5-3.3-3.3v-194c0-1.8 1.5-3.3 3.3-3.3s3.3 1.5 3.3 3.3v194c.1 1.8-1.4 3.3-3.3 3.3z" fill="#000000" data-original="#000000" class=""></path><path fill="#a2b9e2" d="M133.2 287.2h180.6c1.8 0 3.3 1.5 3.3 3.3s-1.5 3.3-3.3 3.3H133.2c-1.8 0-3.3-1.5-3.3-3.3s1.5-3.3 3.3-3.3zM334 370.4V112.5H113.2v273.1c0 7.7 6.3 14 14 14H349c-9.1-6.6-15-17.2-15-29.2zm-200.8-54.6h180.6c1.8 0 3.3 1.5 3.3 3.3s-1.5 3.3-3.3 3.3H133.2c-1.8 0-3.3-1.5-3.3-3.3 0-2 1.5-3.3 3.3-3.3zM257 344.1h56.8c1.8 0 3.3 1.5 3.3 3.3v28.4c0 1.8-1.5 3.3-3.3 3.3H257c-1.8 0-3.3-1.5-3.3-3.3v-28.4c.1-1.9 1.5-3.3 3.3-3.3zm-33.4 0c1.8 0 3.3 1.5 3.3 3.3s-1.5 3.3-3.3 3.3h-90.3c-1.8 0-3.3-1.5-3.3-3.3s1.5-3.3 3.3-3.3zm-90.4 28.4h90.3c1.8 0 3.3 1.5 3.3 3.3s-1.5 3.3-3.3 3.3h-90.3c-1.8 0-3.3-1.5-3.3-3.3s1.5-3.3 3.3-3.3zm180.7-107H257c-1.8 0-3.3-1.5-3.3-3.3v-56.8c0-1.8 1.5-3.3 3.3-3.3h56.8c1.8 0 3.3 1.5 3.3 3.3v56.8c0 1.8-1.5 3.3-3.2 3.3zm-90.3 0h-90.3c-1.8 0-3.3-1.5-3.3-3.3s1.5-3.3 3.3-3.3h90.3c1.8 0 3.3 1.5 3.3 3.3s-1.5 3.3-3.3 3.3zm0-28.4h-90.3c-1.8 0-3.3-1.5-3.3-3.3s1.5-3.3 3.3-3.3h90.3c1.8 0 3.3 1.5 3.3 3.3s-1.5 3.3-3.3 3.3zm0-28.5h-90.3c-1.8 0-3.3-1.5-3.3-3.3s1.5-3.3 3.3-3.3h90.3c1.8 0 3.3 1.5 3.3 3.3s-1.5 3.3-3.3 3.3zm90.3-27.5H133.2c-1.8 0-3.3-1.5-3.3-3.3v-41.5c0-1.8 1.5-3.3 3.3-3.3h180.6c1.8 0 3.3 1.5 3.3 3.3v41.6c0 1.7-1.5 3.2-3.2 3.2z" data-original="#a2b9e2" class=""></path><path fill="#e4e8eb" d="M340.5 155.9v214.4c0 16.1 13.1 29.2 29.2 29.2s29.2-13.1 29.2-29.2V182.8H373v190.8c0 1.8-1.5 3.3-3.3 3.3s-3.3-1.5-3.3-3.3V155.9z" data-original="#e4e8eb" class=""></path><path fill="#62dbfb" d="M136.6 174.6h173.9v-35.2H136.6z" data-original="#62dbfb" class=""></path><path fill="#ffe600" d="M260.4 208.6v50.3h50.1v-50.3z" data-original="#ffe600" class=""></path><path fill="#fd481e" d="M310.5 350.6h-50.1v21.9h50.1z" data-original="#fd481e" class=""></path></g></g></svg>