<svg xmlns="http://www.w3.org/2000/svg" version="1.1" xmlns:xlink="http://www.w3.org/1999/xlink" xmlns:svgjs="http://svgjs.com/svgjs" width="512" height="512" x="0" y="0" viewBox="0 0 24 24" style="enable-background:new 0 0 512 512" xml:space="preserve" class=""><g><path d="M17 22.8H7c-2.6 0-4.8-2.1-4.8-4.8V6c0-2.6 2.1-4.8 4.8-4.8h10c2.6 0 4.8 2.1 4.8 4.8v12c0 2.6-2.2 4.8-4.8 4.8zM7 2.8C5.2 2.8 3.8 4.2 3.8 6v12c0 1.8 1.5 3.2 3.2 3.2h10c1.8 0 3.2-1.5 3.2-3.2V6c0-1.8-1.5-3.2-3.2-3.2z" fill="#defaec" data-original="#000000" class=""></path><path d="M8 16.2c-.4 0-.8.3-.8.8s.3.8.8.8zm4 1.6c.4 0 .8-.3.8-.8s-.3-.8-.8-.8zm-4 0h4v-1.5H8zM8 11.2c-.4 0-.8.3-.8.8s.3.8.8.8zm8 1.6c.4 0 .8-.3.8-.8s-.3-.8-.8-.8zm-8 0h8v-1.5H8zM8 6.2c-.4 0-.8.4-.8.8s.4.8.8.8zm8 1.6c.4 0 .8-.3.8-.8s-.4-.8-.8-.8zm-8 0h8V6.2H8z" fill="#defaec" data-original="#000000" class=""></path></g></svg>