<svg xmlns="http://www.w3.org/2000/svg" version="1.1" xmlns:xlink="http://www.w3.org/1999/xlink" xmlns:svgjs="http://svgjs.com/svgjs" width="512" height="512" x="0" y="0" viewBox="0 0 512.001 512.001" style="enable-background:new 0 0 512 512" xml:space="preserve" class=""><g><path d="M158 270.001c-81.81-.43-148-66.89-148-148.8 0-8.62 3.49-16.42 9.14-22.06a31.065 31.065 0 0 1 22.06-9.14H116M396 90.001h74.8c17.23 0 31.2 13.97 31.2 31.2 0 41.09-16.66 78.29-43.58 105.22-26.75 26.74-63.65 43.36-104.42 43.58" style="stroke-width:20;stroke-linejoin:round;stroke-miterlimit:10;" fill="none" stroke="#defaec" stroke-width="20" stroke-linejoin="round" stroke-miterlimit="10" data-original="#000000" class=""></path><path d="M127.37 225.371c-42.02-12.7-73.38-50.18-77.02-95.37H116M396 130.001h65.65c-3.64 45.19-35 82.67-77.02 95.37" style="stroke-width:20;stroke-linejoin:round;stroke-miterlimit:10;" fill="none" stroke="#defaec" stroke-width="20" stroke-linejoin="round" stroke-miterlimit="10" data-original="#000000" class=""></path><path d="M295.973 10.001H396c11.046 0 20 8.954 20 20h0c0 11.046-8.954 20-20 20H116c-11.046 0-20-8.954-20-20h0c0-11.046 8.954-20 20-20h99.973M256.001 10h0" style="stroke-width:20;stroke-linecap:round;stroke-linejoin:round;stroke-miterlimit:10;" fill="none" stroke="#defaec" stroke-width="20" stroke-linecap="round" stroke-linejoin="round" stroke-miterlimit="10" data-original="#000000" class=""></path><path d="M371 502.001H141c-5.523 0-10-4.477-10-10v-40c0-5.523 4.477-10 10-10h230c5.523 0 10 4.477 10 10v40c0 5.522-4.477 10-10 10zM176 442.001v-30c0-5.523 4.477-10 10-10h140c5.523 0 10 4.477 10 10v30M196 402.001l30.51-95.11M285.49 306.891l30.51 95.11M396 50.001v120c0 77.32-62.68 140-140 140s-140-62.68-140-140v-120" style="stroke-width:20;stroke-linejoin:round;stroke-miterlimit:10;" fill="none" stroke="#defaec" stroke-width="20" stroke-linejoin="round" stroke-miterlimit="10" data-original="#000000" class=""></path><path d="m256 108.182 22.306 37.645 42.694 9.58-28.909 32.847 4.082 43.565L256 214.475l-40.172 17.344 4.082-43.565L191 155.407l42.695-9.58z" style="stroke-width:20;stroke-linejoin:round;stroke-miterlimit:10;" fill="none" stroke="#defaec" stroke-width="20" stroke-linejoin="round" stroke-miterlimit="10" data-original="#000000" class=""></path></g></svg>