<svg xmlns="http://www.w3.org/2000/svg" version="1.1" xmlns:xlink="http://www.w3.org/1999/xlink" xmlns:svgjs="http://svgjs.com/svgjs" width="512" height="512" x="0" y="0" viewBox="0 0 48 48" style="enable-background:new 0 0 512 512" xml:space="preserve" class=""><g><path d="M43.217 23.783a9.493 9.493 0 0 0-2.944-2 6.492 6.492 0 1 0-8.518-9.711 7.988 7.988 0 0 0-15.51 0 6.492 6.492 0 1 0-8.515 9.712A9.513 9.513 0 0 0 2 30.5V35a5.006 5.006 0 0 0 5 5h7.026A4.977 4.977 0 0 0 18 42h12a4.977 4.977 0 0 0 3.974-2H41a5.006 5.006 0 0 0 5-5v-4.5a9.435 9.435 0 0 0-2.783-6.717ZM36.5 12a4.5 4.5 0 1 1-4.5 4.5 4.505 4.505 0 0 1 4.5-4.5Zm-5.354 10.654a10.983 10.983 0 0 0-2.989-1.832 8.061 8.061 0 0 0 2.257-2.061 6.517 6.517 0 0 0 2.32 3.027 9.59 9.59 0 0 0-1.588.866ZM24 8a6 6 0 1 1-6 6 6.006 6.006 0 0 1 6-6Zm-7.146 14.654a9.59 9.59 0 0 0-1.588-.866 6.517 6.517 0 0 0 2.32-3.027 8.061 8.061 0 0 0 2.257 2.061 10.983 10.983 0 0 0-2.989 1.832ZM7 16.5a4.5 4.5 0 1 1 4.5 4.5A4.505 4.505 0 0 1 7 16.5ZM7 38a3 3 0 0 1-3-3v-4.5a7.489 7.489 0 0 1 11.43-6.379A10.937 10.937 0 0 0 13 31v6a5 5 0 0 0 .1 1Zm26-1a3 3 0 0 1-3 3H18a3 3 0 0 1-3-3v-6a9 9 0 0 1 18 0Zm11-2a3 3 0 0 1-3 3h-6.1a5 5 0 0 0 .1-1v-6a10.937 10.937 0 0 0-2.43-6.879A7.494 7.494 0 0 1 44 30.5Z" fill="#000000" data-original="#000000" class=""></path></g></svg>