<svg xmlns="http://www.w3.org/2000/svg" version="1.1" xmlns:xlink="http://www.w3.org/1999/xlink" xmlns:svgjs="http://svgjs.com/svgjs" width="512" height="512" x="0" y="0" viewBox="0 0 512 512" style="enable-background:new 0 0 512 512" xml:space="preserve" class=""><g><path fill="#428dc5" d="M440 288h-16v-56a72 72 0 0 0-144 0v48h-16v-48a88 88 0 0 1 176 0z" data-original="#428dc5"></path><path fill="#6cbae5" d="M232 272h224v32H232z" data-original="#6cbae5"></path><path fill="#4799cf" d="M432 456H256l-16-152h208z" data-original="#4799cf"></path><path fill="#fd9226" d="M456 270v57.55c0 8.61-6.62 16.03-15.23 16.43A16.01 16.01 0 0 1 424 328a16 16 0 1 1-32 0 16 16 0 1 1-32 0 15.942 15.942 0 0 1-2.14 8 16.141 16.141 0 0 1-5.86 5.86 15.789 15.789 0 0 1-7.75 2.14c-8.94.13-16.25-7.5-16.25-16.44V270a22 22 0 0 1 22-22h84a22 22 0 0 1 22 22z" data-original="#fd9226"></path><g fill="#6cbae5"><path d="M256 456h176v32H256zM392 392h16v40h-16zM392 360h16v16h-16z" fill="#6cbae5" data-original="#6cbae5"></path></g><path fill="#e08122" d="M360 328a15.942 15.942 0 0 1-2.14 8 16.141 16.141 0 0 1-5.86 5.86V296h8zM392 328a15.994 15.994 0 0 1-8 13.86V296h8zM424 328a15.994 15.994 0 0 1-8 13.86V296h8z" data-original="#e08122"></path><path fill="#fbb540" d="M312 488H56l16-64h224z" data-original="#fbb540" class=""></path><path fill="#c17450" d="M80 392h208a8 8 0 0 1 8 8v24H72v-24a8 8 0 0 1 8-8z" data-original="#c17450"></path><path fill="#ea9d2d" d="M168 424h32l8 64h-48zM88 488l16-64h32l-16 64z" data-original="#ea9d2d"></path><path fill="#8f563b" d="M184 24a16 16 0 0 1 16 16v352h-32V40a16 16 0 0 1 16-16z" data-original="#8f563b"></path><path fill="#fbb540" d="M104 208a50.6 50.6 0 0 1-32 32 50.6 50.6 0 0 1 32 32 50.6 50.6 0 0 1 32-32 50.6 50.6 0 0 1-32-32zM456 112a50.6 50.6 0 0 1-32 32 50.6 50.6 0 0 1 32 32 50.6 50.6 0 0 1 32-32 50.6 50.6 0 0 1-32-32zM56 304a50.6 50.6 0 0 1-32 32 50.6 50.6 0 0 1 32 32 50.6 50.6 0 0 1 32-32 50.6 50.6 0 0 1-32-32z" data-original="#fbb540" class=""></path><path fill="#ea9d2d" d="M232 424h32l16 64h-32z" data-original="#ea9d2d"></path></g></svg>