<svg xmlns="http://www.w3.org/2000/svg" version="1.1" xmlns:xlink="http://www.w3.org/1999/xlink" xmlns:svgjs="http://svgjs.com/svgjs" width="512" height="512" x="0" y="0" viewBox="0 0 512 512" style="enable-background:new 0 0 512 512" xml:space="preserve" class=""><g><circle cx="256" cy="256" r="256" style="" fill="#ff633e" data-original="#ff633e" class=""></circle><path d="M512 256c0-5.822-.213-11.594-.596-17.32L405.107 132.159c-12.231-12.668-29.355-20.582-48.246-20.582H155.139c-36.934 0-67.153 30.219-67.153 67.153v122.233c0 18.91 7.929 36.047 20.62 48.275l38.169 38.179V414l97.731 97.731c3.812.168 7.641.269 11.494.269 141.385 0 256-114.615 256-256z" style="" fill="#ca1e00" data-original="#ca1e00"></path><path d="M356.861 111.577H155.139c-36.934 0-67.153 30.219-67.153 67.153v122.233c0 34.101 25.767 62.457 58.789 66.609V414l70.732-45.885H356.86c36.934 0 67.153-30.219 67.153-67.153V178.729c.001-36.934-30.218-67.152-67.152-67.152z" style="" fill="#ffffff" data-original="#ffffff"></path><path d="M424.01 178.73v122.23c0 36.94-30.22 67.16-67.15 67.16H256V111.58h100.86c36.93 0 67.15 30.22 67.15 67.15z" style="" fill="#77fef6" data-original="#77fef6"></path><path d="M233.43 223h45.15v100.51h-45.15z" style="" fill="#9330b2" data-original="#9330b2"></path><path d="M256 223h22.57v100.51H256z" style="" fill="#5c1b6f" data-original="#5c1b6f"></path><circle cx="256" cy="182.37" r="28.09" style="" fill="#9330b2" data-original="#9330b2"></circle><path d="M284.09 182.37c0 15.51-12.58 28.09-28.09 28.09v-56.18c15.51 0 28.09 12.58 28.09 28.09z" style="" fill="#5c1b6f" data-original="#5c1b6f"></path></g></svg>