<svg xmlns="http://www.w3.org/2000/svg" version="1.1" xmlns:xlink="http://www.w3.org/1999/xlink" xmlns:svgjs="http://svgjs.com/svgjs" width="512" height="512" x="0" y="0" viewBox="0 0 511 511.999" style="enable-background:new 0 0 512 512" xml:space="preserve" class=""><g><path fill="#99e2ff" d="M491.191 512H334.328V389.2c0-8.184 6.633-14.821 14.817-14.821h138.293c8.183 0 14.82 6.637 14.82 14.82v111.735c0 6.109-4.957 11.066-11.067 11.066zm0 0" data-original="#99e2ff" class=""></path><path fill="#66bbdd" d="M487.441 374.379h-38.343V512h42.093c6.11 0 11.067-4.957 11.067-11.066V389.199c0-8.183-6.633-14.82-14.817-14.82zm0 0" data-original="#66bbdd"></path><path fill="#e4eaf7" d="M273.867 234.18h-44.976l13.879-92.094h17.214zm0 0" data-original="#e4eaf7" class=""></path><path fill="#fcdf6c" d="M202.57 8.371c-6.148 0-11.132 4.984-11.132 11.133v101.922c0 31.398 60.007 50.281 60.007 50.281s60.008-18.883 60.008-50.281V19.504c0-6.149-4.984-11.133-11.133-11.133zm0 0" data-original="#fcdf6c"></path><g fill="#f4b425"><path d="M300.32 8.371h-42.16v113.055c0 16.87-17.328 30.129-33.363 38.785 13.805 7.453 26.648 11.496 26.648 11.496s60.008-18.883 60.008-50.285V19.504c0-6.149-4.984-11.133-11.133-11.133zm0 0" fill="#f4b425" data-original="#f4b425"></path><path d="M371.68 9.871C366.395 3.738 359.414.328 351.496.023c-21.156-.796-43.004 20.278-45.43 22.684v.004c-.14.137-.27.277-.398.426l-.043.054a.781.781 0 0 0-.074.086c-.031.036-.059.07-.086.106-.008.012-.02.023-.028.035a2.8 2.8 0 0 0-.097.129c-.004.004-.008.012-.016.016-.031.046-.066.093-.097.136-.004.004-.008.008-.008.012-.032.047-.063.09-.094.137a2.648 2.648 0 0 0-.102.152 2.629 2.629 0 0 0-.098.156c-.003.008-.01.016-.015.024-.023.043-.05.086-.074.129a.158.158 0 0 0-.02.035c-.023.039-.043.078-.066.113a.427.427 0 0 1-.031.059c-.016.035-.035.066-.051.097l-.035.075c-.016.027-.031.054-.043.082-.016.03-.031.062-.047.097-.008.02-.016.04-.027.059-.02.039-.036.078-.055.12l-.016.036c-.023.05-.043.102-.062.152a7.571 7.571 0 0 0-.574 2.903v9.285c-.032 5.285 1.996 10.254 5.707 13.988a19.42 19.42 0 0 0 13.867 5.762c10.824 0 19.629-8.805 19.629-19.629a7.643 7.643 0 1 0-15.285 0 4.35 4.35 0 0 1-4.344 4.344 4.223 4.223 0 0 1-3.024-1.254c-.824-.824-1.27-1.934-1.265-3.164v-6.02c6.793-6.062 20.914-16.558 31.824-16.144 3.715.148 6.633 1.593 9.176 4.55 4.98 5.786 7.168 11.704 6.687 18.094-1.41 18.664-25.148 39.035-40.86 52.516-5.202 4.465-9.694 8.32-13.026 11.707-5.856 5.96-9.22 14.281-9.22 22.824 0 11.317 8.887 20.524 19.81 20.524s19.804-9.208 19.804-20.524a7.644 7.644 0 1 0-15.285 0c0 2.89-2.027 5.238-4.52 5.238s-4.523-2.347-4.523-5.238c0-4.566 1.762-8.98 4.836-12.11 2.875-2.925 7.14-6.585 12.078-10.823 18.68-16.028 44.262-37.977 46.145-62.961.796-10.504-2.684-20.336-10.34-29.23zM182.531 40.563a4.437 4.437 0 0 1-3.156 1.32 4.348 4.348 0 0 1-4.344-4.348 7.643 7.643 0 0 0-7.644-7.64 7.643 7.643 0 0 0-7.645 7.64c0 10.824 8.809 19.633 19.63 19.633 5.292 0 10.265-2.07 14-5.832 3.714-3.734 5.737-8.68 5.706-13.875v-9.426c0-.043-.004-.082-.004-.125v-.027a7.63 7.63 0 0 0-.433-2.305l-.008-.02c-.016-.046-.035-.093-.051-.14-.004-.016-.012-.027-.016-.043l-.046-.117-.028-.063-.039-.093c-.012-.031-.027-.059-.039-.09-.012-.02-.02-.043-.031-.063-.016-.039-.035-.078-.051-.113l-.023-.047-.063-.129-.012-.023c-.027-.047-.05-.098-.078-.145 0-.004-.004-.008-.008-.012a7.602 7.602 0 0 0-.984-1.406c-.027-.027-.05-.058-.078-.086-.012-.011-.02-.023-.031-.035l-.102-.105a.253.253 0 0 1-.031-.035l-.102-.102-.011-.012C194.375 20.29 172.422-.812 151.246.027c-7.918.313-14.894 3.72-20.168 9.848-7.66 8.895-11.14 18.727-10.348 29.223 1.887 24.984 27.47 46.933 46.145 62.96 4.938 4.239 9.203 7.899 12.078 10.825 3.074 3.129 4.836 7.543 4.836 12.11 0 2.89-2.027 5.237-4.52 5.237-2.492 0-4.519-2.347-4.519-5.238a7.644 7.644 0 0 0-7.645-7.644 7.644 7.644 0 0 0-7.644 7.644c0 11.317 8.887 20.524 19.809 20.524s19.804-9.207 19.804-20.524c0-8.543-3.36-16.86-9.219-22.824-3.328-3.387-7.824-7.242-13.027-11.707-15.707-13.48-39.445-33.852-40.855-52.516-.485-6.39 1.703-12.308 6.687-18.093 2.54-2.954 5.457-4.399 9.176-4.551 10.914-.465 25.129 10.082 31.953 16.152v6.059c.016 1.539-.781 2.57-1.258 3.05zm0 0" fill="#f4b425" data-original="#f4b425"></path></g><path fill="#ffa63b" d="M304.328 297.45H198.43v-63.044c0-6.304 5.11-11.418 11.418-11.418h83.062c6.305 0 11.418 5.114 11.418 11.418zm0 0" data-original="#ffa63b"></path><path fill="#ff8533" d="M292.91 222.988H251.38v74.461h52.95v-63.043c0-6.304-5.114-11.418-11.419-11.418zm0 0" data-original="#ff8533"></path><path fill="#7fd19b" d="M168.43 512H11.566C5.453 512 .5 507.043.5 500.934V341.078c0-8.183 6.633-14.82 14.816-14.82H153.41c8.297 0 15.02 6.726 15.02 15.02zm0 0" data-original="#7fd19b"></path><path fill="#3cab8b" d="M153.41 326.258h-38.144V512h53.164V341.277c0-8.293-6.727-15.02-15.02-15.02zm0 0" data-original="#3cab8b"></path><path fill="#fc477e" d="M335.344 512h-167.93V278.988c0-8.183 6.633-14.816 14.816-14.816h138.293c8.184 0 14.82 6.633 14.82 14.816zm0 0" data-original="#fc477e"></path><path fill="#d82665" d="M320.527 264.172h-38.132V512h52.949V278.988c0-8.183-6.637-14.816-14.817-14.816zm0 0" data-original="#d82665" class=""></path><path fill="#f8fbff" d="m250.836 356.473-4.063 5.109c-.812.813-1.855 1.16-2.554 1.16-2.438 0-4.18-2.555-4.18-4.992 0-1.742.93-3.715 2.438-4.758l12.074-11.61c.812-.812 1.742-1.277 3.133-1.277 2.558 0 5.457 1.508 5.457 4.063v76.852c0 2.671-3.133 4.062-6.153 4.062-3.133 0-6.152-1.39-6.152-4.062zM80.54 365.035c13.468 0 24.843 9.172 24.843 23.106 0 24.957-37.613 33.086-37.613 46.433v4.414h34.132c2.09 0 4.063 2.438 4.063 5.34s-1.973 5.57-4.063 5.57H60.574c-2.324 0-5.457-1.625-5.457-4.062v-11.262c0-18.804 37.961-28.21 37.961-46.086 0-5.691-3.715-12.191-12.535-12.191-6.5 0-11.727 3.598-11.727 11.492 0 2.324-2.437 4.645-6.5 4.645-3.25 0-5.574-1.625-5.574-6.852 0-12.418 11.145-20.547 23.797-20.547zM434.43 461.98v-2.207c0-9.285-5.688-12.652-14.164-12.652-2.903 0-3.946-2.437-3.946-4.875 0-2.555 1.043-4.992 3.946-4.992 7.082 0 12.074-2.207 12.074-12.77 0-8.476-4.063-11.957-11.61-11.957-9.402 0-12.07 4.758-12.07 9.52 0 3.016-1.394 4.988-5.808 4.988-5.454 0-6.383-1.273-6.383-5.687 0-7.547 5.226-19.618 24.379-19.618 13.582 0 23.332 5.34 23.332 20.665 0 9.632-3.715 16.714-9.285 19.386 6.847 2.668 11.84 8.125 11.84 17.992v2.207c0 18.458-11.84 25.31-26.47 25.31-18.109 0-25.656-11.263-25.656-20.435 0-4.062 1.512-5.222 5.688-5.222 5.11 0 6.387 1.508 6.387 4.64 0 5.11 4.293 10.102 13.699 10.102 9.52 0 14.047-4.293 14.047-14.395zm0 0" data-original="#f8fbff"></path></g></svg>