<svg xmlns="http://www.w3.org/2000/svg" xmlns:xlink="http://www.w3.org/1999/xlink" width="500" zoomAndPan="magnify" viewBox="0 0 375 374.999991" height="500" preserveAspectRatio="xMidYMid meet" version="1.0"><defs><clipPath id="2d8a4c07b4"><path d="M 125.125 128.980469 L 249.625 128.980469 L 249.625 245.980469 L 125.125 245.980469 Z M 125.125 128.980469 " clip-rule="nonzero"/></clipPath></defs><g clip-path="url(#2d8a4c07b4)"><path fill="#054d3b" d="M 131.789062 180.808594 C 131.789062 182.351562 131.789062 181.835938 131.789062 183.375 C 131.277344 184.402344 131.277344 183.890625 130.765625 184.914062 L 129.742188 183.890625 C 130.253906 181.835938 130.765625 181.324219 131.789062 180.808594 Z M 131.789062 205.953125 C 131.789062 208.519531 128.203125 211.601562 130.253906 214.164062 C 130.765625 214.679688 131.789062 217.246094 131.789062 217.757812 C 132.304688 217.757812 132.816406 217.757812 133.839844 219.296875 C 134.351562 219.296875 134.351562 219.296875 134.351562 219.296875 C 133.328125 219.296875 133.328125 219.808594 133.839844 221.351562 C 134.863281 220.835938 134.351562 220.835938 136.402344 220.324219 L 138.964844 219.808594 C 139.988281 220.835938 140.5 220.835938 142.035156 220.324219 C 141.523438 218.785156 141.011719 219.808594 139.988281 218.785156 C 141.011719 216.730469 141.523438 217.757812 144.085938 218.269531 C 144.085938 219.808594 143.574219 219.296875 144.085938 220.324219 C 142.550781 220.324219 142.035156 220.835938 141.011719 221.351562 L 134.863281 221.351562 L 134.863281 222.890625 L 136.402344 223.914062 C 136.402344 221.351562 135.890625 223.402344 136.402344 221.863281 L 138.449219 222.375 C 138.964844 225.96875 138.449219 223.914062 139.476562 226.480469 L 142.035156 225.96875 C 143.0625 227.507812 141.523438 226.480469 143.0625 227.507812 C 144.085938 226.996094 144.085938 225.96875 145.109375 225.96875 C 146.648438 225.96875 145.621094 225.96875 145.621094 226.480469 C 145.621094 226.996094 145.109375 227.507812 145.621094 228.535156 C 146.136719 229.046875 146.648438 228.019531 147.160156 228.019531 C 147.160156 229.046875 147.160156 228.535156 147.671875 229.558594 C 148.183594 230.074219 148.183594 230.074219 149.210938 230.074219 C 149.210938 229.558594 148.695312 229.558594 149.210938 228.019531 C 146.136719 227.507812 147.160156 226.996094 147.160156 226.996094 C 146.648438 224.941406 145.621094 225.96875 145.621094 224.941406 C 148.183594 223.914062 147.671875 227.507812 149.722656 227.507812 C 151.257812 227.507812 151.257812 226.996094 153.820312 226.996094 L 152.28125 224.941406 C 149.210938 225.453125 151.769531 224.941406 150.234375 225.96875 C 150.234375 224.941406 150.234375 224.429688 150.746094 223.402344 C 150.234375 223.402344 149.722656 223.914062 149.210938 222.890625 C 152.796875 222.890625 151.257812 222.375 154.84375 224.941406 C 154.84375 224.429688 154.84375 223.914062 154.84375 223.402344 C 155.867188 223.402344 155.355469 223.914062 155.867188 222.890625 C 155.867188 222.890625 155.867188 222.375 155.867188 222.375 C 155.867188 222.375 156.382812 222.890625 156.382812 222.890625 C 157.917969 222.375 156.382812 221.863281 157.917969 221.351562 L 155.867188 221.351562 C 155.867188 220.324219 155.355469 219.808594 157.40625 219.296875 C 158.941406 221.863281 157.917969 222.890625 161.503906 220.835938 C 163.042969 219.808594 164.578125 217.757812 162.015625 217.757812 C 160.992188 217.757812 160.480469 218.269531 159.96875 217.246094 C 162.015625 215.191406 163.554688 218.269531 165.601562 219.296875 C 166.628906 219.808594 167.652344 220.324219 168.675781 220.324219 C 170.214844 221.351562 169.699219 220.324219 171.238281 221.351562 C 172.261719 221.863281 172.773438 222.375 173.800781 223.402344 C 177.386719 225.453125 178.410156 226.996094 179.945312 230.074219 L 180.460938 228.535156 L 181.996094 229.558594 C 183.019531 228.535156 181.996094 229.558594 181.996094 229.046875 L 181.484375 227.507812 C 181.996094 228.019531 183.53125 230.074219 185.582031 230.074219 C 186.09375 229.046875 186.09375 229.046875 186.605469 227.507812 L 185.070312 229.558594 C 181.996094 229.046875 181.484375 226.480469 179.945312 224.429688 C 179.945312 225.453125 180.460938 225.453125 180.460938 226.480469 C 179.945312 225.96875 179.945312 225.96875 178.921875 224.941406 C 178.410156 226.480469 179.433594 225.96875 178.921875 227.507812 L 177.386719 224.941406 C 175.847656 223.914062 175.335938 223.914062 174.824219 222.890625 C 176.359375 222.890625 175.847656 222.890625 176.875 222.890625 C 176.359375 220.324219 175.335938 219.808594 174.824219 217.246094 L 175.847656 218.269531 C 176.359375 218.269531 176.875 218.269531 176.875 218.785156 C 177.386719 219.808594 177.386719 220.324219 177.898438 221.863281 C 178.921875 220.835938 177.386719 217.757812 177.386719 216.730469 C 176.875 215.191406 177.386719 213.652344 178.921875 213.652344 L 179.945312 213.652344 C 179.945312 214.164062 180.460938 213.140625 178.921875 214.164062 C 178.921875 216.21875 178.921875 217.757812 178.921875 219.808594 C 178.921875 222.375 178.921875 221.863281 179.945312 224.429688 C 179.945312 223.402344 178.921875 220.835938 179.945312 219.808594 L 180.460938 221.351562 L 181.996094 219.808594 C 183.019531 221.351562 186.09375 219.296875 186.09375 225.96875 C 186.605469 224.941406 187.632812 224.429688 188.144531 223.402344 L 188.65625 215.703125 C 188.144531 214.679688 187.632812 213.140625 188.144531 212.625 C 188.65625 213.652344 188.65625 215.191406 189.679688 215.703125 C 189.679688 214.679688 188.65625 213.140625 189.679688 212.625 C 189.679688 213.652344 189.679688 214.164062 190.191406 215.191406 C 190.707031 217.757812 190.707031 216.21875 189.679688 217.757812 C 188.65625 220.835938 188.144531 230.585938 185.582031 232.125 C 184.046875 232.640625 184.558594 231.613281 183.53125 232.125 C 184.046875 233.152344 184.558594 236.746094 184.558594 238.285156 C 186.09375 238.285156 185.582031 238.285156 186.605469 237.769531 C 186.605469 238.796875 186.09375 242.390625 184.558594 240.851562 C 184.558594 240.335938 185.070312 240.335938 184.558594 239.308594 C 183.53125 237.769531 183.019531 233.152344 182.507812 232.640625 L 181.996094 232.640625 C 181.996094 234.179688 183.019531 236.230469 183.53125 238.285156 C 183.53125 239.308594 185.070312 240.335938 183.019531 240.851562 L 183.019531 239.308594 L 182.507812 236.230469 C 181.996094 237.769531 181.996094 237.257812 181.996094 238.285156 C 180.460938 236.230469 180.972656 236.746094 179.433594 235.203125 L 179.945312 239.824219 L 177.898438 240.851562 C 176.875 239.308594 176.359375 238.285156 174.3125 237.769531 C 175.335938 238.796875 175.847656 239.308594 176.359375 240.851562 C 166.113281 240.851562 153.820312 242.390625 143.0625 245.980469 L 231.6875 245.980469 C 225.542969 244.441406 211.710938 240.851562 207.609375 240.851562 C 205.050781 240.851562 203.511719 240.335938 200.4375 240.851562 C 196.851562 240.851562 195.828125 241.363281 194.292969 239.308594 C 192.753906 240.335938 193.777344 240.851562 191.21875 240.335938 C 190.707031 237.769531 191.21875 237.257812 192.753906 235.71875 C 191.730469 236.230469 191.21875 237.257812 190.707031 237.769531 L 190.191406 236.230469 L 189.167969 238.796875 C 189.167969 237.257812 188.65625 236.746094 189.679688 235.71875 C 189.167969 235.203125 188.144531 235.71875 189.167969 232.640625 C 191.21875 225.453125 193.777344 227.507812 197.363281 223.914062 C 203.511719 222.375 198.902344 219.808594 212.222656 223.402344 L 212.734375 222.890625 L 213.757812 222.375 C 215.296875 222.375 214.269531 223.914062 214.269531 224.941406 L 216.320312 225.453125 C 216.320312 223.402344 215.808594 225.453125 216.320312 223.402344 L 218.371094 224.429688 C 218.882812 228.019531 218.371094 225.453125 219.394531 228.535156 L 221.957031 228.019531 C 222.980469 229.558594 221.957031 228.535156 222.980469 229.558594 C 224.003906 229.046875 224.003906 228.019531 225.03125 228.019531 C 226.566406 228.019531 225.542969 228.019531 225.542969 228.535156 C 225.542969 229.046875 225.03125 229.558594 225.542969 230.074219 C 226.054688 231.101562 226.566406 230.074219 227.078125 230.074219 C 227.589844 231.101562 227.078125 230.585938 227.589844 231.613281 C 228.101562 232.125 228.617188 232.125 229.128906 232.125 C 229.128906 231.613281 229.128906 231.613281 229.128906 230.074219 C 226.054688 229.558594 227.078125 229.046875 227.078125 228.535156 C 226.566406 226.996094 226.054688 228.019531 225.542969 226.996094 C 228.101562 225.96875 228.101562 229.558594 229.640625 229.558594 C 231.175781 229.558594 231.175781 228.535156 233.738281 229.046875 L 232.203125 226.996094 C 229.640625 227.507812 232.203125 226.996094 230.152344 228.019531 C 230.152344 226.480469 230.152344 226.480469 230.664062 225.453125 C 230.152344 225.453125 229.640625 225.453125 229.640625 224.941406 C 232.714844 224.941406 231.175781 224.429688 235.273438 226.996094 C 234.761719 225.453125 234.25 224.429688 234.25 223.402344 C 235.273438 223.402344 235.273438 223.914062 236.300781 224.941406 C 237.835938 224.429688 236.300781 223.914062 237.835938 223.402344 L 236.300781 222.890625 C 237.324219 221.351562 236.8125 221.863281 235.789062 220.835938 C 236.300781 219.296875 235.789062 220.324219 236.8125 219.296875 C 235.273438 218.269531 236.8125 217.757812 234.761719 217.757812 C 233.738281 219.808594 234.25 218.785156 235.273438 220.324219 C 234.25 220.835938 233.738281 220.835938 233.226562 220.324219 C 231.6875 219.296875 233.226562 219.808594 233.738281 219.808594 C 233.226562 217.757812 232.714844 218.785156 233.738281 217.757812 C 232.203125 216.730469 233.226562 218.269531 232.714844 216.21875 C 237.835938 216.21875 234.761719 216.21875 236.300781 215.703125 C 236.8125 215.703125 236.300781 215.703125 237.324219 215.703125 C 237.324219 216.21875 237.835938 216.21875 237.835938 216.21875 L 237.324219 217.246094 C 239.375 216.21875 238.347656 216.730469 241.421875 217.246094 C 240.398438 216.21875 238.863281 216.21875 238.863281 214.679688 L 240.910156 216.21875 C 240.398438 214.164062 240.398438 215.703125 236.8125 211.085938 C 236.8125 212.625 236.8125 212.113281 237.324219 213.140625 C 234.761719 213.652344 236.300781 213.652344 235.273438 215.191406 C 234.761719 214.679688 234.761719 213.652344 234.761719 213.140625 L 235.789062 212.113281 C 235.273438 211.085938 235.789062 211.085938 236.8125 211.085938 C 235.273438 210.058594 235.273438 210.574219 235.273438 209.546875 C 236.8125 209.035156 235.789062 209.546875 237.835938 209.546875 C 238.863281 210.058594 239.886719 209.035156 239.375 210.574219 L 236.8125 211.085938 C 239.375 211.601562 238.347656 211.601562 241.421875 211.085938 C 240.398438 210.058594 240.398438 210.574219 240.910156 209.035156 L 238.863281 209.035156 C 238.863281 206.980469 238.863281 207.496094 238.347656 206.46875 L 239.886719 205.953125 C 238.863281 205.441406 238.863281 205.953125 237.835938 204.929688 C 237.324219 203.902344 237.835938 203.390625 238.347656 202.875 C 239.886719 203.390625 238.863281 202.875 239.886719 203.902344 C 240.398438 202.363281 239.375 203.390625 240.910156 202.363281 L 239.886719 200.824219 L 241.933594 200.824219 C 240.910156 199.796875 240.398438 199.285156 240.910156 197.746094 L 241.933594 199.796875 C 242.449219 200.824219 241.933594 199.285156 242.449219 200.824219 C 245.519531 199.796875 246.546875 199.285156 246.546875 197.230469 C 246.035156 196.71875 245.007812 197.230469 244.496094 196.71875 C 244.496094 194.664062 243.984375 194.152344 245.007812 193.125 C 242.449219 191.074219 245.007812 190.558594 242.449219 191.585938 L 242.449219 189.535156 C 244.496094 190.558594 242.449219 189.535156 244.496094 190.046875 L 244.496094 188.507812 C 245.519531 189.535156 246.035156 188.507812 247.058594 187.480469 C 248.082031 186.453125 248.59375 186.96875 249.621094 185.941406 C 246.546875 184.402344 248.082031 185.429688 246.546875 186.453125 C 246.035156 185.429688 246.546875 185.429688 245.519531 184.914062 L 245.519531 186.96875 L 246.546875 187.480469 C 245.519531 187.480469 245.007812 189.019531 243.472656 187.996094 C 243.472656 185.941406 243.472656 187.480469 243.984375 186.96875 L 244.496094 186.453125 C 243.472656 185.429688 243.984375 185.941406 242.960938 185.941406 C 242.449219 185.941406 242.960938 185.941406 242.449219 185.429688 C 242.960938 184.914062 242.960938 185.429688 243.984375 185.941406 C 243.984375 183.890625 243.984375 184.914062 243.472656 183.890625 C 245.007812 183.890625 244.496094 183.890625 245.007812 182.351562 C 243.984375 182.351562 243.984375 182.351562 243.472656 181.324219 C 242.960938 183.375 243.984375 182.351562 242.960938 183.375 L 241.421875 181.324219 C 241.933594 180.808594 243.472656 180.296875 241.933594 179.269531 C 241.421875 179.269531 240.910156 179.269531 239.375 178.246094 C 240.398438 177.730469 241.933594 178.757812 242.449219 178.757812 C 243.472656 179.269531 241.933594 179.785156 244.496094 179.269531 C 243.984375 178.246094 243.984375 175.164062 246.035156 176.191406 C 245.519531 176.703125 245.007812 176.191406 246.035156 177.730469 C 246.546875 178.757812 247.058594 179.269531 248.59375 178.757812 C 248.59375 177.730469 248.59375 177.21875 248.59375 176.191406 C 248.59375 174.140625 248.59375 176.191406 249.621094 174.140625 C 247.570312 173.625 248.082031 174.140625 247.570312 172.601562 C 247.058594 174.140625 247.058594 174.140625 245.519531 174.652344 C 245.007812 175.164062 245.519531 175.164062 243.984375 175.164062 C 244.496094 173.113281 243.984375 172.601562 242.960938 171.574219 C 241.933594 172.085938 242.449219 172.601562 241.421875 173.113281 L 240.398438 171.574219 C 240.398438 172.601562 240.398438 173.113281 241.421875 173.113281 C 243.472656 173.625 241.421875 173.113281 242.960938 173.113281 L 243.472656 173.113281 C 243.472656 174.140625 242.449219 174.652344 241.421875 176.703125 C 240.398438 175.164062 240.398438 174.652344 239.375 173.625 L 238.863281 175.164062 C 236.8125 173.113281 237.835938 173.625 235.789062 173.113281 C 238.347656 172.085938 237.324219 172.601562 237.835938 171.574219 L 239.375 169.519531 C 240.398438 170.546875 239.375 169.519531 239.886719 170.546875 C 240.398438 171.058594 239.886719 170.546875 240.910156 171.058594 L 241.933594 169.519531 L 240.398438 167.46875 C 239.375 167.46875 237.324219 168.496094 237.324219 165.929688 C 239.886719 164.390625 238.863281 167.46875 242.960938 166.953125 L 239.886719 165.414062 C 240.910156 164.390625 240.398438 164.390625 241.421875 163.363281 C 241.421875 163.875 241.421875 163.875 241.421875 163.875 C 241.421875 164.390625 242.449219 164.902344 242.960938 165.414062 C 242.960938 165.929688 242.960938 165.929688 243.472656 166.441406 C 243.472656 163.875 242.960938 163.363281 240.910156 162.851562 L 242.449219 161.308594 C 241.421875 159.769531 240.910156 160.285156 239.375 159.769531 L 240.398438 158.230469 C 240.910156 157.203125 241.933594 158.746094 240.910156 156.691406 C 240.398438 155.152344 240.910156 155.664062 239.886719 156.179688 C 239.886719 156.179688 239.886719 156.179688 239.886719 156.691406 C 239.375 157.71875 240.398438 156.691406 239.375 157.203125 C 238.347656 157.71875 237.835938 157.71875 236.8125 157.203125 L 238.347656 156.179688 L 235.273438 156.691406 C 235.789062 155.152344 235.789062 155.664062 235.273438 154.125 L 236.8125 154.640625 C 236.8125 153.613281 235.789062 153.101562 234.761719 152.585938 L 236.300781 152.074219 C 235.789062 151.046875 235.789062 152.585938 234.761719 151.558594 C 233.738281 150.535156 234.25 150.019531 234.761719 148.996094 L 232.714844 151.558594 C 233.738281 152.585938 234.25 152.074219 233.738281 153.613281 C 231.6875 154.125 232.714844 153.613281 231.175781 152.585938 C 231.175781 154.640625 232.203125 154.640625 230.664062 155.152344 C 229.640625 154.640625 230.664062 155.664062 230.152344 153.613281 C 229.128906 151.046875 230.664062 151.558594 232.714844 150.019531 C 230.664062 149.507812 232.203125 150.535156 230.152344 150.019531 C 230.664062 149.507812 231.175781 148.996094 232.203125 147.96875 C 231.6875 147.453125 231.175781 147.453125 230.664062 145.914062 C 229.640625 146.429688 229.640625 146.429688 228.617188 146.429688 C 229.640625 146.941406 229.640625 146.429688 231.175781 147.453125 L 228.617188 150.019531 L 227.589844 149.507812 C 228.101562 148.480469 228.617188 148.480469 229.128906 147.453125 C 227.589844 147.96875 228.101562 147.453125 227.589844 147.453125 C 225.542969 147.453125 227.078125 147.453125 225.542969 148.480469 C 224.515625 146.941406 225.03125 146.941406 222.980469 147.453125 C 222.980469 146.429688 222.980469 146.941406 224.003906 145.914062 L 220.929688 147.96875 L 224.003906 150.535156 L 224.003906 148.480469 C 226.566406 148.480469 226.054688 148.996094 226.566406 151.046875 C 226.054688 152.074219 226.054688 151.558594 225.03125 152.074219 L 225.542969 153.101562 C 223.492188 153.101562 224.003906 152.074219 222.46875 150.535156 C 220.417969 148.996094 221.957031 148.480469 220.417969 147.96875 C 219.394531 148.480469 220.417969 147.96875 219.90625 149.507812 L 218.882812 147.453125 L 217.855469 148.996094 C 217.34375 146.429688 218.371094 148.480469 218.882812 146.941406 C 218.882812 146.429688 218.371094 147.453125 218.882812 145.914062 L 220.417969 147.453125 L 220.929688 146.941406 L 220.929688 145.402344 C 221.441406 146.429688 221.441406 146.429688 222.46875 146.429688 C 222.980469 144.375 221.957031 145.402344 222.46875 143.351562 C 222.980469 141.808594 223.492188 142.835938 224.003906 140.785156 L 221.957031 139.757812 C 221.957031 139.757812 221.957031 139.757812 221.957031 140.269531 C 220.929688 141.296875 221.957031 140.269531 221.957031 140.269531 L 222.46875 141.808594 C 221.957031 142.324219 221.957031 141.808594 220.417969 140.269531 C 219.90625 140.785156 219.90625 140.785156 219.394531 141.296875 C 218.371094 140.785156 218.371094 140.269531 217.855469 140.269531 C 220.929688 144.375 216.320312 142.324219 215.296875 142.324219 C 215.808594 141.808594 216.832031 141.296875 217.855469 141.808594 C 215.808594 140.269531 217.34375 140.785156 216.832031 139.246094 C 216.320312 138.21875 216.320312 139.246094 216.320312 137.703125 C 218.371094 138.21875 217.34375 138.21875 217.34375 139.246094 L 218.371094 138.730469 C 216.832031 136.679688 217.34375 136.679688 215.808594 137.191406 C 214.785156 137.191406 214.269531 137.191406 213.246094 137.191406 C 213.757812 136.164062 213.246094 136.164062 213.246094 135.652344 L 212.734375 137.703125 C 212.222656 137.191406 211.710938 137.191406 211.195312 137.191406 L 210.683594 135.140625 C 210.171875 136.164062 209.148438 136.679688 208.125 137.191406 L 209.148438 138.21875 C 208.125 138.730469 208.125 138.21875 208.636719 139.246094 C 209.148438 139.757812 210.683594 140.785156 208.636719 140.785156 C 207.609375 140.785156 207.609375 139.757812 205.050781 139.757812 C 205.5625 141.808594 204.023438 141.808594 205.5625 143.863281 L 207.609375 142.835938 C 207.609375 143.351562 207.609375 144.375 209.148438 144.375 C 209.148438 142.835938 209.660156 143.863281 208.636719 143.351562 C 208.636719 143.351562 208.636719 142.835938 208.636719 142.835938 L 209.660156 142.835938 C 208.636719 141.808594 209.148438 142.324219 208.636719 141.296875 C 209.660156 141.808594 211.195312 141.808594 211.710938 142.324219 C 211.195312 139.757812 210.683594 139.246094 214.269531 139.757812 L 214.785156 138.21875 L 216.320312 140.785156 C 213.246094 140.785156 214.269531 139.757812 212.734375 140.785156 L 214.269531 140.785156 L 214.785156 142.324219 C 217.855469 142.835938 217.855469 143.863281 217.855469 146.941406 C 217.855469 146.941406 217.34375 146.941406 217.34375 146.429688 C 214.785156 145.402344 216.832031 145.402344 214.269531 144.890625 C 215.296875 146.941406 215.296875 145.402344 215.808594 146.941406 C 214.785156 146.941406 214.269531 146.429688 213.757812 145.914062 L 213.246094 147.453125 C 211.710938 144.375 210.171875 145.914062 206.074219 144.890625 C 206.585938 146.429688 206.585938 145.402344 207.097656 146.941406 L 205.050781 145.914062 C 204.023438 146.941406 204.539062 147.453125 203 146.941406 C 204.023438 147.96875 204.539062 147.96875 206.074219 148.996094 C 205.050781 150.019531 204.023438 150.019531 203.511719 151.046875 C 206.074219 151.046875 208.125 152.585938 208.636719 154.640625 C 208.125 156.179688 208.125 155.152344 207.097656 156.179688 C 209.148438 157.203125 210.683594 156.179688 210.683594 159.769531 C 208.636719 159.257812 209.660156 158.746094 207.609375 158.746094 C 205.5625 158.746094 206.074219 158.746094 207.609375 157.71875 L 206.585938 157.203125 L 206.585938 155.152344 C 204.023438 154.640625 205.5625 155.152344 204.539062 153.613281 C 203 154.125 204.023438 154.125 202.488281 155.152344 C 201.464844 154.640625 201.464844 154.125 200.953125 153.613281 C 201.464844 152.585938 201.976562 153.101562 203 153.101562 C 203 152.074219 201.976562 150.019531 200.953125 149.507812 C 200.4375 148.996094 200.4375 148.996094 199.925781 149.507812 C 200.4375 151.046875 200.4375 148.996094 201.464844 151.046875 C 198.902344 150.535156 199.925781 150.019531 197.878906 151.046875 C 197.878906 149.507812 197.363281 149.507812 196.339844 148.996094 C 197.878906 147.96875 196.851562 147.96875 198.902344 148.480469 C 197.878906 147.453125 197.878906 147.96875 198.390625 146.941406 C 199.925781 147.453125 198.902344 147.96875 200.4375 147.96875 C 198.902344 146.429688 200.4375 146.429688 198.390625 145.402344 C 196.851562 144.375 196.339844 144.375 196.851562 142.324219 C 197.878906 141.808594 197.878906 142.835938 200.4375 141.808594 C 199.925781 142.835938 199.414062 142.835938 199.414062 143.863281 C 200.953125 144.375 199.414062 143.863281 200.4375 144.375 C 201.976562 145.402344 201.976562 145.914062 203.511719 146.429688 C 203 144.890625 203 145.914062 202.488281 144.375 C 203 143.351562 204.023438 143.351562 204.539062 142.324219 C 204.539062 141.296875 204.539062 140.785156 203.511719 139.757812 C 201.976562 139.757812 204.539062 139.757812 202.488281 140.785156 L 200.953125 138.21875 C 202.488281 138.21875 202.488281 138.730469 203.511719 138.21875 C 202.488281 136.679688 202.488281 137.703125 203 136.164062 L 200.4375 135.652344 L 199.925781 135.140625 C 200.4375 133.601562 200.4375 136.679688 200.4375 134.625 C 199.925781 134.113281 199.414062 134.113281 198.390625 134.625 C 197.878906 133.601562 199.414062 135.652344 198.390625 133.601562 C 199.925781 133.085938 200.4375 133.085938 200.4375 131.546875 C 198.390625 131.546875 194.804688 130.519531 193.265625 132.058594 C 192.242188 133.085938 192.242188 132.058594 192.753906 133.601562 C 189.679688 133.085938 191.730469 134.113281 190.191406 134.113281 C 189.679688 130.007812 186.605469 131.546875 184.558594 133.601562 L 186.09375 135.140625 L 185.070312 136.164062 C 184.558594 137.703125 185.070312 137.191406 185.582031 137.191406 L 187.632812 138.730469 L 188.144531 136.679688 C 189.679688 137.703125 187.632812 137.703125 189.679688 137.703125 C 189.167969 140.269531 189.679688 138.21875 190.191406 139.757812 C 188.144531 140.269531 188.65625 138.730469 186.605469 140.269531 L 187.632812 141.808594 C 188.65625 140.785156 189.679688 139.757812 191.21875 140.785156 C 190.191406 141.808594 190.191406 141.296875 188.65625 141.296875 L 189.679688 142.835938 C 186.605469 142.835938 188.65625 143.351562 186.605469 143.863281 C 184.046875 144.375 181.996094 141.296875 179.433594 140.785156 C 178.410156 141.296875 177.898438 141.808594 177.386719 142.835938 L 176.359375 141.296875 C 177.386719 140.269531 176.359375 141.296875 178.410156 141.296875 C 177.898438 138.21875 178.410156 141.296875 177.386719 139.246094 C 178.410156 138.21875 178.410156 138.21875 178.921875 136.679688 L 180.460938 138.21875 L 178.410156 139.246094 L 180.972656 141.296875 C 181.996094 139.757812 180.972656 140.269531 181.996094 138.730469 C 182.507812 137.703125 183.53125 137.703125 184.046875 137.191406 L 183.53125 134.113281 C 183.019531 134.113281 182.507812 134.113281 181.996094 133.601562 L 183.019531 131.546875 C 184.558594 131.546875 185.070312 131.546875 186.09375 132.058594 L 185.070312 128.980469 C 182.507812 129.496094 184.046875 130.519531 180.972656 131.035156 C 179.945312 131.035156 178.921875 131.035156 177.898438 131.035156 C 176.875 131.035156 176.875 131.546875 176.359375 132.058594 C 174.3125 130.519531 172.773438 131.546875 171.238281 132.574219 C 169.699219 131.035156 165.089844 131.035156 163.042969 132.058594 C 161.503906 133.085938 159.96875 133.085938 158.941406 135.140625 C 160.992188 137.191406 160.480469 136.164062 163.042969 136.164062 C 163.554688 135.140625 162.527344 134.113281 164.578125 134.625 C 166.113281 134.625 165.601562 135.140625 165.601562 136.679688 L 167.652344 136.679688 C 167.140625 138.21875 167.140625 137.703125 167.652344 138.730469 C 168.164062 139.757812 168.164062 139.757812 168.675781 141.296875 C 167.140625 140.785156 167.652344 140.785156 166.113281 140.785156 L 165.601562 142.324219 C 163.042969 139.246094 162.015625 140.269531 160.480469 138.730469 C 162.527344 138.730469 162.015625 139.246094 164.066406 139.757812 C 163.554688 138.730469 163.554688 137.703125 163.042969 137.191406 C 162.015625 136.679688 159.96875 137.191406 158.941406 137.191406 C 157.917969 139.246094 158.941406 138.21875 157.917969 139.246094 C 158.429688 140.785156 158.941406 139.757812 158.941406 141.296875 C 157.40625 141.296875 158.429688 141.296875 157.917969 140.785156 C 157.40625 140.269531 155.867188 139.757812 154.84375 139.757812 L 153.820312 139.757812 L 153.308594 138.21875 C 151.257812 138.730469 152.28125 138.730469 150.234375 138.21875 C 149.210938 140.785156 150.234375 139.757812 147.671875 141.296875 C 148.695312 143.863281 146.648438 143.351562 147.160156 144.890625 C 145.109375 144.890625 144.085938 145.402344 142.550781 147.453125 C 144.085938 148.480469 142.550781 147.453125 143.574219 147.453125 L 143.0625 149.507812 C 142.035156 148.480469 142.550781 147.96875 141.011719 147.453125 C 141.523438 150.019531 144.597656 149.507812 144.085938 152.074219 C 144.085938 153.101562 144.597656 152.074219 144.085938 152.585938 C 143.574219 152.585938 143.0625 152.074219 142.550781 152.074219 C 142.550781 152.585938 142.035156 152.585938 142.035156 153.613281 C 143.0625 152.074219 142.550781 151.558594 145.109375 155.152344 C 142.550781 155.152344 143.0625 155.664062 143.0625 153.101562 C 142.550781 154.125 143.0625 154.640625 141.523438 154.640625 C 141.011719 154.640625 139.988281 154.125 138.964844 154.125 C 135.890625 153.613281 136.914062 155.664062 137.425781 157.203125 C 135.375 156.691406 136.402344 156.691406 134.863281 156.179688 L 135.375 158.746094 C 133.839844 158.746094 133.328125 158.746094 132.304688 159.257812 C 132.304688 159.257812 133.839844 158.746094 134.351562 159.769531 L 133.839844 160.796875 C 132.816406 160.285156 132.816406 160.285156 131.789062 159.769531 C 132.304688 163.363281 133.839844 159.769531 134.863281 163.363281 L 132.816406 163.875 C 131.277344 163.875 133.328125 164.390625 131.789062 163.875 C 130.253906 163.875 131.789062 162.851562 129.742188 163.875 C 128.71875 164.390625 128.71875 164.390625 128.71875 165.929688 C 126.667969 164.902344 127.179688 165.414062 126.667969 165.929688 C 125.644531 167.980469 127.691406 166.441406 125.132812 167.46875 C 125.132812 168.496094 126.667969 170.546875 126.667969 171.058594 C 128.203125 173.113281 129.230469 172.085938 130.253906 173.113281 C 129.742188 173.625 130.765625 173.625 129.230469 173.625 C 128.203125 173.625 128.71875 173.113281 127.691406 173.113281 L 126.15625 174.652344 C 126.667969 176.191406 126.667969 175.679688 126.667969 177.730469 L 128.203125 178.757812 C 127.179688 179.269531 127.179688 179.269531 127.179688 180.808594 C 127.691406 182.351562 127.691406 181.835938 129.230469 182.351562 C 129.230469 184.402344 129.230469 183.890625 128.203125 184.914062 C 123.082031 188.507812 130.765625 187.996094 128.71875 190.046875 C 127.179688 191.585938 130.253906 191.074219 130.253906 192.613281 C 130.253906 194.664062 133.328125 193.640625 129.230469 198.257812 C 128.203125 199.285156 130.765625 200.824219 130.765625 202.363281 C 130.765625 203.390625 131.277344 204.929688 131.789062 205.953125 Z M 137.9375 216.21875 C 137.425781 215.703125 136.914062 215.703125 134.863281 216.21875 C 134.863281 216.21875 135.890625 214.164062 136.402344 214.679688 C 138.449219 216.21875 136.914062 215.191406 135.890625 213.140625 C 135.375 210.574219 134.351562 214.679688 134.351562 214.679688 C 132.816406 213.652344 134.351562 217.246094 133.328125 214.679688 C 133.328125 214.679688 131.789062 211.601562 132.816406 212.113281 C 133.328125 212.625 132.816406 213.652344 134.351562 211.601562 C 134.351562 211.601562 135.375 211.601562 135.375 211.085938 C 135.890625 211.601562 136.402344 212.113281 136.402344 212.625 C 137.9375 212.625 139.476562 212.625 141.011719 213.652344 C 140.5 214.164062 139.988281 214.164062 139.476562 214.164062 C 139.476562 214.164062 139.476562 214.164062 139.476562 214.679688 C 138.964844 214.164062 138.964844 214.164062 138.449219 214.164062 C 138.449219 214.164062 137.9375 214.164062 137.9375 214.164062 L 138.964844 215.703125 C 138.449219 216.21875 137.9375 216.21875 137.9375 216.21875 Z M 133.328125 207.496094 Z M 144.085938 221.351562 C 143.574219 221.863281 143.574219 222.375 143.574219 222.375 L 142.035156 221.863281 L 141.523438 222.375 C 141.523438 222.375 142.035156 222.375 142.035156 222.375 C 142.035156 222.890625 143.574219 223.402344 144.085938 223.402344 C 146.136719 223.914062 145.109375 223.402344 145.109375 223.402344 L 143.574219 222.890625 C 144.085938 222.375 144.085938 222.375 144.597656 221.351562 C 146.136719 222.890625 146.136719 222.890625 147.160156 222.890625 C 149.210938 223.914062 146.136719 224.429688 149.210938 224.941406 C 148.695312 222.890625 148.183594 222.375 146.648438 221.351562 L 150.234375 221.351562 C 149.210938 220.835938 148.183594 219.808594 147.671875 218.785156 C 147.160156 218.269531 146.648438 219.808594 147.160156 216.730469 C 149.722656 216.21875 147.160156 217.246094 149.722656 216.730469 C 148.695312 215.191406 148.695312 215.191406 147.671875 216.730469 L 146.648438 215.703125 L 146.648438 216.730469 L 144.597656 216.21875 C 145.109375 217.757812 145.109375 215.703125 145.621094 218.269531 C 144.597656 218.785156 144.085938 219.808594 144.085938 221.351562 Z M 152.28125 221.351562 L 153.820312 221.351562 C 153.820312 219.296875 154.332031 220.324219 154.84375 219.296875 L 153.308594 218.785156 C 151.257812 220.324219 152.28125 219.808594 152.28125 221.351562 Z M 154.332031 222.375 C 154.332031 222.890625 154.332031 222.890625 154.84375 223.402344 C 154.332031 222.890625 154.332031 222.890625 154.332031 222.375 Z M 146.648438 215.703125 Z M 142.035156 186.453125 L 145.109375 185.429688 C 147.160156 186.453125 149.210938 187.480469 149.722656 189.019531 C 148.695312 189.019531 148.183594 188.507812 147.671875 187.996094 C 146.648438 189.535156 147.160156 189.535156 146.136719 190.046875 C 145.109375 189.535156 146.136719 190.046875 145.109375 189.019531 C 143.0625 186.453125 143.0625 188.507812 142.035156 186.453125 Z M 151.769531 191.585938 C 153.308594 192.101562 150.746094 192.613281 151.769531 191.585938 Z M 144.085938 191.074219 C 145.109375 191.074219 147.671875 191.585938 148.695312 192.101562 C 150.746094 192.101562 151.257812 192.101562 152.28125 193.125 C 151.769531 193.640625 151.257812 193.125 150.234375 193.640625 C 151.257812 195.179688 151.257812 195.691406 153.820312 195.691406 C 152.796875 196.71875 153.308594 197.230469 153.308594 197.230469 L 154.84375 198.769531 C 155.867188 199.796875 154.84375 199.285156 156.382812 199.796875 C 155.867188 197.746094 155.355469 197.746094 154.332031 197.230469 C 154.84375 195.691406 153.820312 197.746094 154.84375 196.203125 L 154.84375 195.691406 C 155.867188 196.203125 155.867188 196.203125 156.894531 195.691406 C 156.894531 194.152344 156.894531 193.125 156.382812 192.613281 L 152.796875 190.558594 L 151.769531 191.585938 C 150.746094 190.046875 151.769531 190.558594 153.308594 189.535156 L 154.332031 191.074219 C 154.84375 190.046875 154.332031 190.046875 154.84375 189.535156 C 155.355469 189.019531 154.332031 189.019531 155.867188 189.019531 C 157.40625 189.019531 154.332031 190.046875 158.429688 191.074219 C 158.941406 190.046875 159.96875 188.507812 162.015625 189.535156 L 160.480469 191.074219 L 159.96875 190.046875 C 159.453125 191.074219 159.96875 191.585938 158.941406 192.101562 C 158.429688 192.613281 157.917969 192.613281 157.40625 192.613281 C 157.917969 193.640625 158.429688 193.125 158.941406 194.152344 C 158.429688 195.691406 157.917969 195.691406 158.429688 196.71875 C 158.429688 197.230469 159.453125 197.746094 159.96875 198.257812 C 159.453125 198.769531 159.96875 198.769531 158.429688 198.769531 C 158.941406 200.308594 160.480469 200.824219 158.429688 201.851562 C 157.917969 201.335938 158.429688 201.335938 157.40625 200.824219 C 155.867188 198.769531 156.382812 200.308594 156.382812 200.308594 C 156.382812 200.308594 156.382812 200.824219 156.382812 202.363281 C 155.355469 201.851562 155.355469 201.851562 154.84375 202.363281 L 154.84375 205.953125 C 150.746094 205.441406 155.867188 202.363281 151.257812 201.335938 C 151.769531 202.875 152.796875 203.902344 151.769531 205.441406 C 151.257812 204.929688 149.722656 203.902344 149.210938 203.390625 C 149.722656 200.824219 150.234375 203.902344 150.234375 200.308594 L 147.671875 199.285156 C 146.136719 197.230469 147.671875 197.746094 145.621094 197.230469 C 145.109375 198.769531 145.621094 198.257812 145.621094 198.769531 C 145.621094 199.285156 146.136719 198.769531 145.109375 199.285156 L 144.597656 197.746094 C 143.574219 198.257812 144.085938 198.257812 143.0625 198.769531 C 143.0625 196.71875 144.085938 198.257812 144.085938 196.203125 C 141.523438 195.691406 139.988281 197.230469 137.9375 197.230469 L 137.9375 195.691406 C 137.9375 195.691406 138.964844 196.203125 139.988281 196.203125 C 142.035156 196.203125 140.5 193.640625 144.085938 193.125 C 143.574219 191.074219 143.574219 191.585938 144.085938 191.074219 Z M 156.894531 211.601562 L 159.96875 212.113281 C 160.480469 211.601562 160.480469 213.140625 160.480469 211.085938 C 161.503906 211.601562 161.503906 211.601562 162.527344 211.085938 C 162.527344 212.113281 162.527344 211.601562 162.015625 212.625 L 160.992188 212.113281 L 159.96875 213.140625 L 159.453125 213.140625 L 158.429688 214.164062 L 156.894531 213.652344 C 157.917969 212.625 157.40625 212.625 156.894531 211.601562 Z M 197.363281 223.914062 L 192.242188 226.996094 C 191.21875 225.96875 192.242188 225.96875 193.265625 225.453125 L 198.390625 221.351562 L 197.363281 221.863281 C 195.316406 223.402344 193.777344 224.941406 190.707031 225.453125 C 190.707031 221.863281 192.753906 217.757812 194.804688 217.246094 C 195.828125 218.785156 195.316406 219.808594 196.851562 220.835938 C 198.902344 218.269531 196.339844 217.246094 199.414062 216.730469 C 198.390625 217.246094 197.878906 217.246094 198.390625 218.785156 C 200.953125 218.269531 198.902344 218.785156 200.4375 216.730469 C 200.953125 217.757812 199.414062 218.785156 198.902344 220.324219 C 199.925781 219.808594 200.4375 218.785156 201.464844 218.785156 C 201.976562 221.351562 198.902344 222.890625 197.363281 223.914062 Z M 212.734375 222.890625 C 212.222656 223.402344 212.222656 222.890625 212.734375 222.890625 Z M 237.835938 216.21875 C 237.835938 215.703125 237.835938 216.21875 237.835938 216.21875 Z M 200.4375 135.652344 C 201.464844 136.164062 199.925781 135.652344 200.4375 135.652344 Z M 147.160156 182.351562 L 147.160156 180.296875 L 147.671875 175.164062 C 150.746094 174.652344 150.234375 176.703125 150.234375 178.757812 L 150.746094 179.269531 C 151.769531 179.785156 150.746094 178.757812 151.769531 178.757812 C 152.796875 178.246094 152.28125 178.757812 152.796875 179.269531 C 152.796875 180.296875 152.28125 180.296875 151.769531 181.324219 C 152.796875 181.835938 152.28125 181.324219 152.796875 182.351562 L 148.695312 177.730469 L 147.671875 180.296875 L 148.183594 180.296875 C 148.695312 180.296875 148.695312 179.785156 149.722656 181.324219 C 149.210938 181.324219 148.695312 181.324219 148.695312 181.324219 Z M 155.867188 187.480469 C 156.382812 186.96875 156.894531 186.96875 157.40625 186.453125 C 158.429688 190.046875 158.429688 189.019531 157.917969 189.535156 C 156.382812 188.507812 157.917969 189.019531 155.867188 187.480469 Z M 189.167969 207.496094 C 189.679688 206.980469 189.167969 206.980469 190.191406 205.953125 C 190.191406 205.953125 191.21875 204.929688 190.191406 206.980469 L 188.144531 210.058594 L 187.121094 208.519531 C 188.144531 208.007812 188.144531 208.007812 189.167969 207.496094 Z M 194.292969 210.574219 C 194.292969 208.519531 194.804688 209.035156 195.316406 208.519531 C 196.339844 209.035156 195.828125 208.519531 196.339844 209.035156 C 195.828125 209.546875 196.339844 209.546875 195.828125 209.546875 C 194.292969 210.574219 195.316406 210.574219 194.292969 210.574219 Z M 208.125 217.246094 C 208.125 216.21875 208.636719 216.21875 209.148438 215.703125 C 210.683594 215.703125 209.660156 216.21875 210.171875 216.21875 C 209.660156 217.246094 209.148438 217.757812 208.636719 218.269531 C 208.125 217.246094 208.125 218.785156 208.125 217.246094 Z M 214.269531 220.835938 Z M 210.171875 217.757812 C 211.195312 217.246094 210.683594 217.757812 211.195312 216.730469 C 212.222656 217.246094 212.222656 217.246094 212.222656 217.246094 C 214.269531 217.246094 212.222656 216.21875 215.296875 217.757812 L 214.269531 220.324219 C 214.269531 220.324219 214.269531 220.835938 214.269531 220.835938 L 213.757812 219.808594 Z M 224.515625 225.453125 C 223.492188 225.453125 221.957031 224.941406 221.957031 224.429688 C 221.957031 224.429688 221.441406 224.429688 221.441406 223.914062 C 222.46875 223.402344 223.492188 222.890625 224.515625 223.402344 C 224.003906 221.863281 224.003906 222.890625 223.492188 221.863281 C 225.03125 221.863281 224.515625 221.351562 225.03125 222.890625 C 226.566406 222.890625 226.054688 222.890625 226.566406 223.402344 C 228.101562 224.429688 228.617188 224.429688 229.128906 226.996094 C 226.054688 226.480469 229.128906 225.96875 227.078125 224.941406 C 226.566406 224.941406 226.054688 224.941406 224.515625 223.402344 C 224.003906 224.429688 224.003906 224.429688 223.492188 224.941406 L 225.03125 225.453125 C 225.03125 225.453125 226.054688 225.453125 224.515625 225.453125 Z M 219.394531 221.863281 C 217.855469 221.863281 216.832031 221.351562 216.320312 220.324219 C 218.371094 219.808594 218.882812 219.808594 219.394531 221.863281 Z M 191.21875 203.390625 C 189.679688 200.824219 190.707031 201.851562 189.167969 200.824219 C 191.21875 198.769531 191.730469 203.902344 193.777344 204.414062 C 194.804688 204.929688 194.804688 203.902344 195.828125 205.441406 L 193.777344 205.441406 C 191.730469 203.902344 192.242188 205.441406 191.21875 203.390625 Z M 196.851562 205.441406 C 198.390625 204.414062 197.363281 204.929688 198.902344 204.414062 C 198.902344 205.441406 198.390625 204.929688 199.925781 205.953125 C 199.925781 205.953125 199.925781 205.953125 200.4375 205.953125 C 199.414062 206.46875 199.925781 206.46875 197.878906 206.980469 Z M 201.976562 209.035156 C 201.464844 208.007812 200.953125 208.519531 201.464844 206.980469 C 203 208.007812 201.976562 208.519531 203.511719 208.519531 L 201.464844 205.953125 C 201.976562 204.414062 201.976562 205.441406 201.464844 204.414062 C 201.464844 203.390625 200.953125 202.875 203 202.875 L 203 205.441406 C 204.023438 206.46875 203.511719 205.953125 204.023438 206.980469 C 204.539062 208.007812 205.050781 208.007812 205.050781 210.058594 C 204.539062 210.574219 204.539062 210.574219 204.023438 210.574219 C 203 211.085938 204.023438 210.574219 203 211.601562 C 202.488281 210.574219 202.488281 210.574219 201.976562 209.035156 Z M 214.785156 214.679688 L 215.808594 214.164062 C 216.320312 214.679688 216.320312 214.164062 216.320312 215.191406 C 214.785156 215.191406 215.296875 215.191406 214.785156 214.679688 Z M 224.003906 218.785156 C 220.417969 215.703125 222.46875 219.296875 220.929688 216.730469 C 221.957031 216.21875 222.46875 216.21875 223.492188 216.21875 Z M 231.175781 223.402344 L 229.640625 221.351562 C 228.617188 220.324219 228.617188 220.835938 228.101562 219.296875 L 230.152344 219.296875 C 230.664062 219.808594 230.664062 219.808594 230.664062 220.835938 C 231.175781 220.835938 231.6875 220.835938 232.714844 220.835938 Z M 150.746094 206.980469 C 151.769531 207.496094 151.257812 207.496094 152.796875 207.496094 C 153.308594 209.546875 153.308594 209.035156 153.308594 210.058594 C 152.28125 209.546875 151.257812 208.519531 150.746094 206.980469 Z M 152.796875 211.085938 C 153.820312 212.113281 152.796875 212.113281 154.332031 212.625 C 155.355469 213.652344 155.355469 213.140625 155.867188 214.164062 C 155.867188 215.191406 154.84375 215.191406 154.84375 215.191406 C 155.867188 217.757812 156.894531 215.703125 155.867188 219.296875 C 155.867188 218.785156 156.382812 217.246094 154.332031 216.730469 C 153.820312 216.730469 151.769531 216.21875 151.257812 216.21875 C 152.28125 215.191406 150.746094 217.246094 152.28125 215.703125 C 152.28125 215.191406 152.28125 215.191406 152.28125 215.703125 L 152.796875 214.679688 L 150.234375 215.191406 C 149.722656 214.164062 149.722656 214.164062 148.695312 213.140625 L 150.746094 213.652344 C 150.746094 213.140625 150.746094 213.652344 151.257812 213.140625 C 152.28125 211.085938 150.746094 211.601562 152.796875 211.085938 Z M 163.042969 213.140625 L 164.066406 211.601562 C 160.992188 209.546875 162.527344 208.519531 162.527344 208.519531 C 164.578125 210.058594 162.527344 210.574219 166.628906 211.085938 C 168.164062 211.601562 171.238281 211.085938 171.238281 213.652344 C 168.675781 212.113281 167.652344 213.140625 165.601562 214.164062 C 167.140625 214.679688 166.628906 214.164062 167.652344 214.164062 C 167.140625 214.679688 167.140625 214.679688 166.628906 215.191406 C 166.113281 216.21875 167.140625 215.191406 166.628906 216.21875 C 164.578125 215.703125 165.089844 215.191406 163.554688 214.164062 C 164.066406 213.652344 164.578125 213.652344 164.578125 213.652344 C 164.578125 213.652344 164.578125 213.652344 164.578125 213.140625 Z M 166.628906 218.785156 L 168.675781 218.269531 C 167.652344 217.757812 167.652344 218.269531 167.140625 216.730469 C 171.238281 216.730469 174.824219 217.246094 175.335938 221.863281 C 173.285156 221.351562 169.699219 218.785156 168.675781 218.785156 C 167.652344 218.785156 169.1875 219.296875 167.652344 218.785156 C 167.652344 218.785156 167.140625 218.785156 166.628906 218.785156 Z M 169.699219 208.007812 L 171.238281 206.980469 C 169.699219 206.46875 170.214844 206.980469 169.1875 205.953125 C 170.214844 204.929688 170.214844 207.496094 174.3125 204.929688 C 171.238281 203.902344 172.261719 205.441406 170.726562 204.414062 L 167.140625 203.390625 C 168.164062 202.363281 165.601562 202.363281 168.675781 202.875 L 172.773438 203.390625 C 173.800781 201.851562 172.261719 203.390625 172.773438 202.363281 C 174.3125 202.875 173.285156 202.363281 173.800781 202.875 C 175.335938 204.929688 175.335938 203.902344 177.898438 203.902344 C 177.898438 204.929688 177.898438 204.929688 176.875 204.929688 C 174.3125 205.953125 175.847656 204.414062 174.3125 205.953125 C 179.433594 206.46875 178.410156 204.414062 180.460938 206.980469 C 180.972656 208.519531 181.484375 208.007812 181.996094 208.519531 C 180.460938 209.035156 180.460938 207.496094 178.921875 206.46875 C 177.898438 206.980469 178.921875 206.980469 177.898438 207.496094 L 174.824219 208.519531 L 174.3125 206.46875 C 173.800781 206.46875 173.800781 205.953125 172.773438 206.46875 C 172.261719 206.46875 172.773438 206.46875 172.261719 206.46875 C 172.773438 206.980469 173.285156 206.980469 173.800781 207.496094 C 173.285156 207.496094 174.824219 208.007812 172.773438 207.496094 L 171.75 206.980469 C 170.726562 208.007812 171.75 208.007812 170.726562 208.007812 C 170.214844 208.007812 169.699219 208.007812 169.699219 208.007812 Z M 179.433594 216.730469 L 179.945312 215.703125 L 179.433594 214.679688 C 181.996094 214.164062 181.484375 216.730469 183.019531 216.730469 L 183.53125 216.21875 C 183.53125 216.21875 183.53125 216.21875 184.046875 216.21875 C 183.53125 219.296875 183.019531 215.703125 182.507812 218.269531 C 183.019531 218.785156 183.019531 218.269531 183.53125 218.785156 L 183.019531 219.808594 C 180.972656 219.296875 180.972656 218.785156 180.460938 216.730469 C 179.433594 217.246094 180.460938 217.757812 179.433594 216.730469 Z M 184.558594 198.257812 C 185.070312 197.230469 185.582031 196.203125 186.605469 196.203125 L 185.582031 197.230469 C 187.121094 197.746094 189.679688 198.769531 188.144531 196.203125 C 190.191406 195.691406 188.65625 196.71875 190.707031 195.691406 C 190.191406 196.71875 190.707031 196.203125 189.679688 196.71875 L 190.191406 198.257812 C 189.679688 197.746094 190.707031 198.257812 189.167969 197.746094 L 188.65625 199.285156 C 187.121094 197.746094 187.121094 198.257812 184.558594 198.257812 Z M 207.097656 204.929688 C 207.609375 202.363281 207.097656 203.902344 207.097656 200.824219 L 207.609375 201.335938 L 209.148438 201.335938 C 212.222656 199.796875 208.636719 203.902344 212.734375 198.257812 C 214.269531 198.769531 213.246094 198.769531 214.785156 199.796875 L 213.246094 201.851562 C 211.195312 201.851562 209.660156 201.851562 208.636719 203.390625 L 210.171875 204.414062 C 207.097656 204.929688 209.148438 204.929688 207.097656 204.929688 Z M 214.785156 208.519531 L 216.832031 209.035156 C 216.832031 208.007812 216.320312 208.519531 216.320312 208.007812 C 216.320312 207.496094 216.320312 207.496094 216.320312 207.496094 C 217.34375 206.980469 216.832031 207.496094 217.855469 206.46875 L 219.394531 206.980469 C 218.371094 208.519531 218.371094 208.007812 218.371094 210.058594 C 219.90625 209.035156 219.394531 209.035156 220.417969 209.546875 C 219.90625 210.574219 220.417969 209.546875 219.90625 210.574219 C 219.394531 211.085938 219.90625 211.601562 218.882812 213.140625 C 218.371094 212.113281 218.882812 212.113281 217.855469 211.601562 L 216.832031 213.140625 C 216.320312 212.625 216.832031 212.625 215.808594 212.113281 C 214.785156 211.085938 215.296875 212.625 214.785156 211.601562 C 215.296875 210.574219 214.785156 210.574219 214.785156 208.519531 Z M 229.640625 215.191406 L 229.640625 214.164062 C 231.6875 214.164062 229.640625 213.652344 231.175781 214.679688 C 232.203125 215.191406 231.6875 214.679688 232.203125 215.191406 Z M 162.527344 196.203125 Z M 159.96875 196.203125 C 160.480469 195.179688 160.480469 193.640625 163.042969 193.640625 C 164.578125 194.152344 164.066406 194.152344 164.578125 194.664062 C 162.527344 195.691406 162.527344 194.664062 161.503906 195.691406 L 162.527344 196.203125 C 162.527344 196.203125 162.527344 196.71875 163.042969 196.71875 C 160.992188 198.257812 162.015625 197.230469 159.96875 196.203125 Z M 164.578125 196.71875 C 166.113281 196.203125 166.628906 197.230469 168.675781 197.230469 C 168.164062 199.285156 168.675781 198.257812 168.675781 200.824219 C 167.652344 200.308594 168.164062 200.308594 167.140625 198.769531 C 166.113281 199.285156 166.628906 198.769531 166.113281 199.796875 C 166.113281 199.796875 165.601562 199.285156 165.601562 199.285156 L 165.089844 198.257812 L 165.601562 197.746094 Z M 170.214844 199.796875 C 169.699219 198.257812 170.214844 199.285156 170.726562 198.257812 L 171.238281 196.71875 L 173.285156 198.257812 C 172.261719 198.257812 172.261719 198.769531 170.726562 198.769531 C 171.238281 199.285156 171.75 199.796875 171.75 199.796875 C 171.238281 200.308594 172.261719 200.824219 170.214844 199.796875 Z M 191.21875 215.703125 L 191.21875 211.085938 C 192.753906 212.113281 191.21875 212.113281 192.242188 213.140625 C 193.777344 213.140625 193.265625 212.625 193.777344 212.625 C 194.804688 213.140625 194.292969 214.164062 193.265625 214.679688 C 192.753906 215.191406 191.730469 215.703125 191.21875 215.703125 Z M 147.160156 182.351562 C 148.695312 181.324219 146.648438 182.863281 147.160156 182.351562 Z M 195.828125 214.164062 C 196.339844 213.140625 196.851562 212.625 197.878906 212.113281 L 198.902344 213.652344 Z M 213.246094 213.140625 C 213.246094 212.625 212.734375 212.113281 214.269531 212.625 C 214.785156 212.625 214.785156 213.140625 215.296875 213.140625 C 214.269531 213.652344 214.269531 213.652344 213.246094 213.140625 Z M 143.0625 202.363281 L 143.574219 202.363281 C 144.597656 203.902344 144.085938 204.414062 143.0625 204.929688 C 142.550781 203.902344 142.035156 203.390625 143.0625 202.363281 Z M 145.109375 213.140625 C 146.136719 214.164062 145.621094 212.113281 146.648438 214.679688 C 144.597656 215.703125 144.597656 214.679688 142.035156 214.164062 L 143.0625 211.601562 C 146.136719 211.601562 143.574219 211.601562 145.109375 213.140625 Z M 199.414062 199.796875 C 199.925781 198.769531 199.414062 198.769531 199.414062 197.746094 C 202.488281 197.230469 200.953125 197.746094 201.464844 196.203125 C 203 196.71875 201.464844 196.203125 203 196.71875 C 202.488281 193.640625 203 196.203125 203.511719 194.152344 C 205.050781 194.152344 206.074219 194.664062 207.097656 195.179688 C 208.125 197.746094 208.125 196.203125 208.636719 197.746094 C 207.609375 198.257812 207.609375 197.746094 206.585938 198.257812 C 205.050781 199.285156 206.074219 199.285156 204.023438 199.285156 C 204.539062 200.308594 204.539062 199.796875 205.5625 200.824219 C 203.511719 200.824219 204.023438 201.851562 201.976562 201.851562 C 200.4375 200.308594 200.953125 200.308594 199.414062 199.796875 Z M 218.882812 205.953125 C 218.371094 204.414062 219.394531 204.929688 217.855469 203.390625 C 217.34375 202.875 217.34375 202.875 216.832031 201.851562 C 218.371094 201.851562 219.394531 201.335938 220.929688 201.851562 C 221.441406 203.902344 220.417969 202.875 219.90625 203.902344 C 219.394531 205.441406 220.929688 204.929688 218.882812 205.953125 Z M 233.226562 211.601562 C 232.203125 211.601562 232.714844 210.058594 232.714844 209.546875 C 234.25 209.546875 234.761719 210.058594 234.25 211.601562 C 233.738281 211.601562 235.273438 212.113281 233.226562 211.601562 Z M 210.171875 211.601562 C 210.683594 210.574219 210.683594 211.085938 211.195312 210.058594 C 210.171875 209.035156 210.683594 209.546875 210.171875 208.519531 C 212.222656 208.007812 212.734375 211.085938 212.734375 211.601562 C 211.195312 212.113281 212.222656 212.113281 211.195312 211.085938 Z M 187.121094 206.980469 C 186.09375 205.441406 186.605469 206.980469 185.582031 204.929688 C 188.144531 206.46875 186.605469 205.441406 188.65625 205.953125 C 188.144531 206.980469 188.65625 206.46875 187.121094 206.980469 Z M 134.351562 187.996094 C 134.863281 186.453125 135.375 186.453125 137.425781 186.453125 C 137.425781 188.507812 136.914062 189.019531 134.863281 189.535156 C 134.863281 187.996094 134.863281 189.019531 135.375 187.996094 C 134.351562 187.996094 134.863281 187.996094 134.351562 187.996094 Z M 135.375 199.796875 C 137.425781 200.824219 134.863281 200.308594 137.425781 204.929688 C 134.351562 203.390625 135.890625 203.902344 133.839844 203.902344 C 134.351562 202.875 134.351562 202.875 135.375 202.363281 Z M 195.316406 196.203125 C 195.316406 195.179688 195.316406 195.179688 195.828125 194.664062 C 197.363281 194.664062 197.878906 194.664062 200.4375 195.179688 L 200.4375 196.203125 C 199.414062 196.71875 199.925781 196.203125 198.902344 196.203125 C 199.414062 196.71875 199.414062 196.71875 199.414062 197.230469 C 197.878906 196.71875 198.390625 196.203125 197.878906 195.691406 C 196.851562 196.203125 197.878906 195.691406 197.363281 196.203125 L 197.363281 196.71875 C 197.363281 196.71875 197.363281 196.71875 196.851562 196.71875 L 196.339844 195.691406 Z M 226.054688 207.496094 C 223.492188 208.007812 225.542969 205.953125 224.515625 203.902344 C 227.078125 204.414062 227.589844 203.902344 227.589844 205.441406 C 227.078125 205.953125 227.078125 205.441406 225.542969 205.441406 C 225.542969 206.980469 226.054688 206.46875 226.054688 207.496094 Z M 144.597656 177.730469 C 143.574219 176.703125 144.085938 177.21875 143.574219 176.191406 L 142.550781 176.703125 C 143.0625 175.164062 142.035156 176.191406 143.574219 175.679688 C 145.109375 174.652344 145.621094 175.164062 146.648438 177.21875 C 145.109375 176.703125 145.109375 176.703125 144.597656 177.730469 Z M 165.089844 183.375 C 167.652344 180.808594 166.113281 182.863281 168.675781 181.324219 L 169.1875 183.890625 C 168.164062 183.375 168.675781 183.375 167.652344 182.863281 L 166.628906 183.890625 L 166.113281 183.890625 Z M 217.855469 197.746094 L 218.371094 196.203125 L 219.90625 197.230469 C 218.882812 198.257812 216.832031 198.769531 215.808594 199.285156 C 216.832031 197.230469 215.808594 197.746094 217.855469 197.746094 Z M 228.617188 199.796875 L 228.617188 197.230469 C 230.664062 197.746094 234.761719 199.796875 235.273438 201.851562 C 234.25 201.335938 233.738281 200.308594 232.714844 200.308594 C 230.664062 199.796875 231.6875 200.308594 231.6875 200.308594 C 231.6875 201.851562 232.203125 200.308594 232.203125 201.335938 C 229.640625 200.824219 231.6875 198.769531 228.617188 199.796875 Z M 195.828125 197.746094 C 193.777344 198.257812 192.242188 198.257812 191.21875 197.230469 C 191.21875 196.203125 190.191406 196.71875 191.730469 196.71875 C 193.265625 196.203125 194.804688 197.230469 195.828125 197.746094 Z M 210.171875 198.257812 C 209.660156 197.230469 209.148438 197.230469 209.148438 196.203125 C 211.710938 196.71875 211.710938 195.179688 212.734375 197.230469 C 212.222656 198.257812 212.734375 197.746094 211.710938 198.257812 C 209.660156 199.796875 210.683594 199.796875 208.636719 199.796875 C 209.148438 198.257812 209.148438 198.769531 210.171875 198.257812 Z M 215.296875 194.664062 C 214.785156 194.664062 214.785156 194.664062 215.296875 194.664062 Z M 192.242188 189.019531 C 190.707031 187.996094 190.191406 187.996094 188.144531 186.96875 C 189.167969 185.429688 188.144531 186.453125 189.679688 185.941406 C 191.21875 185.429688 190.191406 184.914062 191.21875 185.429688 L 190.191406 187.480469 C 191.730469 187.996094 192.753906 186.96875 192.242188 189.019531 Z M 212.222656 193.640625 C 210.683594 190.558594 211.710938 191.585938 209.148438 191.585938 C 207.097656 191.585938 208.636719 191.585938 207.097656 192.101562 L 206.585938 189.535156 C 209.148438 190.046875 207.097656 190.046875 209.148438 190.558594 C 210.171875 187.996094 208.636719 187.480469 208.636719 186.453125 C 209.148438 186.453125 210.171875 186.453125 210.683594 186.96875 C 211.710938 187.996094 210.683594 187.480469 211.710938 189.019531 L 210.171875 189.535156 C 212.222656 191.585938 213.246094 191.074219 214.785156 192.613281 C 214.785156 192.101562 214.785156 191.585938 215.296875 190.558594 L 213.757812 190.558594 L 214.785156 188.507812 L 217.34375 188.507812 C 217.855469 190.046875 217.34375 189.019531 217.34375 189.535156 C 217.855469 190.558594 217.34375 189.535156 217.855469 190.558594 C 218.882812 189.019531 217.855469 188.507812 218.882812 187.996094 C 220.929688 186.96875 219.90625 190.558594 219.90625 190.558594 C 221.441406 191.074219 219.394531 190.046875 221.441406 190.558594 C 221.441406 191.585938 220.929688 192.613281 220.417969 193.125 C 219.90625 193.640625 219.90625 193.125 218.371094 192.613281 C 217.34375 193.640625 217.34375 193.640625 216.320312 192.613281 C 216.320312 194.664062 216.320312 194.152344 215.296875 195.179688 L 215.296875 194.664062 C 215.296875 194.664062 215.296875 194.664062 214.785156 194.152344 C 214.785156 193.640625 215.296875 193.640625 214.269531 193.640625 C 212.222656 193.125 214.269531 194.152344 212.222656 193.640625 Z M 159.453125 179.269531 C 159.96875 179.269531 158.941406 178.757812 160.992188 179.785156 L 160.480469 176.191406 C 160.480469 176.191406 160.480469 176.191406 159.96875 175.164062 C 163.042969 175.164062 163.042969 176.191406 164.066406 176.703125 C 166.113281 177.730469 165.601562 176.703125 165.601562 176.703125 C 164.066406 175.164062 164.578125 176.191406 164.066406 174.140625 C 167.652344 175.164062 166.113281 175.164062 167.140625 177.730469 C 166.628906 178.246094 166.628906 177.21875 166.113281 179.269531 C 162.015625 179.269531 165.089844 176.191406 162.015625 177.21875 C 161.503906 178.246094 161.503906 176.703125 161.503906 178.246094 C 162.015625 178.246094 162.015625 178.757812 162.015625 179.269531 C 163.554688 180.296875 163.042969 179.269531 163.554688 180.296875 C 163.042969 180.296875 162.015625 180.296875 161.503906 180.296875 C 159.453125 180.296875 159.96875 180.296875 159.453125 179.269531 Z M 172.773438 181.324219 C 172.261719 181.324219 171.75 181.324219 171.238281 180.808594 C 171.75 179.269531 172.261719 178.757812 173.285156 177.730469 L 175.335938 179.269531 L 174.3125 180.296875 L 173.800781 179.269531 Z M 222.980469 191.074219 C 222.46875 190.558594 221.957031 189.019531 220.417969 187.480469 C 216.832031 184.402344 219.394531 185.429688 216.832031 185.429688 C 216.832031 182.863281 216.832031 181.324219 218.882812 180.296875 C 217.855469 178.246094 218.882812 179.785156 217.855469 179.269531 C 216.320312 178.246094 217.855469 179.269531 216.832031 177.730469 L 214.269531 177.730469 C 213.757812 176.703125 213.757812 176.191406 214.785156 175.164062 C 215.808594 177.21875 217.855469 177.21875 219.394531 178.757812 C 221.441406 180.808594 218.371094 182.351562 222.46875 182.863281 C 221.957031 181.835938 221.441406 181.835938 221.441406 180.808594 C 222.980469 180.808594 222.980469 182.351562 222.980469 182.351562 C 223.492188 182.351562 223.492188 182.351562 223.492188 182.351562 C 222.980469 182.863281 222.980469 182.351562 222.46875 183.375 C 222.46875 184.914062 223.492188 184.914062 222.46875 185.941406 C 222.46875 186.453125 222.46875 186.453125 221.957031 186.453125 C 219.90625 184.914062 222.980469 184.402344 219.90625 184.402344 L 221.441406 187.996094 L 222.980469 186.453125 L 224.003906 186.96875 C 225.542969 187.480469 223.492188 186.453125 225.03125 186.96875 C 224.515625 188.507812 224.515625 187.996094 224.515625 189.535156 C 226.054688 189.535156 226.054688 189.535156 226.566406 191.074219 C 225.542969 191.074219 226.054688 190.558594 224.515625 190.558594 C 222.980469 190.558594 224.515625 191.074219 222.980469 191.074219 Z M 228.101562 190.046875 C 227.078125 189.535156 226.566406 189.535156 226.566406 187.996094 C 227.078125 188.507812 227.589844 187.996094 228.101562 189.019531 C 228.617188 190.046875 228.101562 190.046875 228.101562 190.046875 Z M 153.308594 177.730469 C 151.769531 177.730469 150.234375 176.191406 149.722656 174.652344 L 151.257812 173.113281 C 149.210938 172.601562 150.234375 172.601562 149.210938 172.601562 C 147.671875 172.085938 148.695312 172.601562 148.183594 172.601562 C 148.695312 173.625 149.210938 173.625 148.695312 174.652344 L 147.671875 173.113281 L 145.621094 174.652344 C 144.085938 174.140625 144.085938 173.625 144.085938 173.625 L 144.085938 170.546875 C 144.597656 171.058594 145.109375 170.035156 144.597656 173.113281 L 146.136719 173.625 C 147.160156 170.546875 146.648438 171.574219 148.695312 168.496094 C 148.695312 169.007812 149.210938 168.496094 148.695312 169.007812 L 148.183594 171.058594 L 148.695312 171.574219 C 149.722656 171.058594 149.210938 171.058594 150.234375 169.519531 C 151.257812 170.546875 150.746094 168.496094 150.746094 170.546875 C 151.257812 172.601562 151.257812 171.058594 150.746094 172.085938 C 151.769531 172.601562 151.769531 172.601562 152.796875 173.113281 C 153.820312 174.652344 153.820312 173.625 154.84375 174.652344 C 154.332031 175.164062 155.867188 175.164062 153.308594 174.652344 C 151.769531 174.140625 152.28125 174.652344 152.28125 173.625 L 151.257812 175.679688 C 152.796875 176.703125 153.308594 176.191406 153.308594 177.730469 Z M 176.875 181.324219 C 176.359375 180.808594 175.847656 179.785156 176.359375 178.757812 C 179.433594 178.246094 178.410156 180.808594 176.875 181.324219 Z M 213.246094 185.429688 L 215.296875 184.402344 C 217.34375 189.019531 217.855469 184.914062 217.34375 187.480469 L 214.269531 185.429688 C 213.246094 185.941406 213.246094 185.429688 213.246094 185.429688 Z M 229.128906 186.453125 L 227.078125 185.429688 C 227.589844 184.914062 228.101562 184.402344 229.128906 184.402344 Z M 229.640625 185.429688 C 229.640625 184.402344 230.152344 184.914062 230.152344 184.914062 C 230.664062 185.429688 231.175781 185.941406 230.152344 186.96875 C 229.640625 186.453125 229.640625 187.480469 229.640625 185.429688 Z M 228.617188 199.796875 Z M 225.542969 201.851562 C 224.515625 201.335938 223.492188 200.308594 225.542969 200.308594 L 228.617188 199.796875 C 231.6875 202.875 230.664062 201.851562 232.203125 201.851562 C 232.203125 203.390625 231.6875 202.363281 231.6875 203.902344 C 232.714844 204.414062 231.6875 203.902344 232.714844 204.414062 C 234.761719 204.929688 233.738281 204.929688 234.25 205.953125 C 235.273438 208.007812 236.8125 206.46875 237.835938 207.496094 C 234.761719 209.035156 235.273438 208.519531 232.203125 208.007812 C 230.664062 204.929688 231.6875 206.46875 229.640625 205.441406 L 229.128906 201.851562 C 229.128906 201.851562 229.128906 201.851562 228.101562 201.851562 C 227.589844 201.335938 228.101562 201.851562 227.589844 200.824219 C 226.054688 201.335938 227.589844 202.363281 225.542969 201.851562 Z M 235.789062 190.046875 L 235.273438 188.507812 C 234.761719 187.480469 234.761719 188.507812 234.761719 186.96875 L 235.789062 187.480469 L 236.8125 185.941406 L 238.863281 187.480469 L 239.375 185.429688 C 238.347656 184.402344 237.835938 185.429688 236.8125 184.402344 C 237.324219 183.890625 236.300781 183.375 238.863281 184.402344 C 240.398438 184.914062 239.886719 184.914062 241.421875 184.914062 L 240.398438 187.480469 C 240.398438 188.507812 239.375 187.480469 240.398438 190.046875 C 238.863281 189.535156 239.375 189.019531 237.324219 187.996094 C 236.300781 189.019531 236.300781 188.507812 235.789062 190.046875 Z M 170.214844 178.246094 C 168.164062 179.785156 167.652344 176.191406 167.140625 174.140625 C 168.675781 175.164062 169.1875 176.703125 169.1875 177.21875 C 169.1875 177.21875 169.699219 177.730469 170.214844 178.246094 Z M 181.484375 179.785156 C 179.945312 179.785156 177.898438 179.785156 178.921875 178.246094 C 180.460938 176.703125 180.972656 179.269531 181.484375 179.785156 Z M 189.679688 180.296875 C 189.679688 179.785156 190.191406 178.757812 190.707031 177.730469 L 188.65625 176.703125 C 188.65625 175.679688 188.144531 175.679688 188.65625 174.140625 L 190.707031 175.679688 C 190.707031 173.113281 190.707031 174.652344 191.730469 173.113281 C 190.707031 170.546875 191.21875 174.652344 187.632812 172.085938 C 188.144531 171.574219 188.65625 173.113281 188.144531 169.007812 C 189.679688 170.035156 188.65625 170.035156 191.730469 171.058594 C 191.21875 170.035156 191.21875 170.546875 191.21875 170.035156 C 193.265625 169.007812 191.730469 168.496094 193.777344 169.007812 C 194.804688 169.007812 195.316406 169.519531 196.851562 169.519531 L 194.804688 170.546875 C 196.339844 171.574219 196.339844 169.519531 196.851562 172.085938 L 194.804688 172.601562 C 198.390625 175.679688 197.878906 174.140625 200.953125 175.679688 C 199.414062 177.21875 194.292969 174.652344 193.777344 173.625 C 193.777344 175.164062 194.292969 174.652344 194.804688 176.703125 C 192.753906 175.679688 191.730469 174.140625 191.730469 176.703125 C 191.730469 176.703125 191.730469 177.730469 191.21875 179.269531 C 190.191406 180.296875 191.21875 179.785156 189.679688 180.296875 Z M 231.6875 183.890625 C 231.175781 183.375 231.6875 183.890625 231.175781 183.375 C 228.617188 180.296875 230.664062 182.863281 228.101562 181.835938 C 228.617188 180.808594 228.617188 180.808594 229.128906 180.296875 C 230.664062 180.808594 230.664062 181.324219 231.6875 183.890625 Z M 234.25 183.890625 C 233.738281 184.402344 233.738281 184.402344 232.714844 183.375 L 233.738281 181.324219 C 234.25 181.835938 234.761719 182.351562 234.761719 182.863281 C 234.761719 184.914062 234.761719 183.375 234.25 183.890625 Z M 208.125 179.785156 C 209.148438 178.757812 209.148438 179.269531 208.125 177.730469 C 207.609375 176.191406 208.125 176.703125 207.097656 176.191406 C 206.074219 177.21875 207.097656 176.703125 206.074219 178.246094 C 205.5625 177.21875 205.5625 176.703125 205.050781 174.652344 C 204.539062 175.679688 205.050781 175.164062 204.539062 175.679688 L 204.023438 177.21875 C 201.976562 176.703125 203.511719 176.703125 203 176.703125 C 203 176.703125 203 176.191406 203 176.191406 L 204.023438 175.164062 C 203.511719 174.652344 203 173.625 202.488281 173.113281 C 203 173.113281 203.511719 172.601562 203.511719 172.601562 C 205.5625 172.085938 206.074219 170.035156 204.023438 172.085938 L 202.488281 170.035156 C 198.902344 169.519531 199.414062 169.007812 199.414062 168.496094 C 201.464844 168.496094 201.464844 170.035156 203.511719 168.496094 C 204.023438 169.007812 204.023438 169.007812 204.539062 170.035156 C 206.074219 168.496094 204.539062 170.035156 205.050781 168.496094 C 207.609375 171.574219 205.5625 172.085938 205.5625 174.652344 C 207.097656 173.625 206.074219 173.113281 208.125 173.625 C 207.097656 175.164062 206.074219 173.625 207.097656 175.164062 C 207.609375 176.703125 207.097656 175.679688 207.609375 175.679688 C 207.609375 175.679688 208.636719 175.164062 208.636719 175.164062 C 209.660156 176.191406 208.636719 176.191406 209.148438 177.21875 C 209.660156 178.757812 210.683594 178.757812 210.683594 180.296875 C 209.660156 180.808594 209.148438 180.296875 208.125 179.785156 Z M 223.492188 180.808594 C 222.46875 179.269531 223.492188 179.785156 223.492188 177.730469 C 225.03125 177.21875 224.003906 177.730469 225.03125 177.21875 L 226.054688 179.269531 L 224.003906 179.269531 Z M 211.710938 174.652344 L 209.148438 174.652344 C 209.148438 172.601562 209.148438 173.625 210.171875 172.085938 Z M 186.09375 173.625 C 185.582031 173.113281 185.582031 172.085938 185.070312 171.058594 L 186.605469 171.574219 L 186.09375 171.574219 C 187.121094 173.113281 186.605469 173.113281 186.09375 173.625 Z M 212.222656 170.035156 C 212.222656 170.035156 212.734375 170.546875 212.222656 170.035156 Z M 213.246094 173.625 C 211.710938 172.601562 212.734375 173.113281 212.222656 172.085938 C 211.195312 169.519531 208.636719 167.46875 214.269531 167.980469 C 215.296875 167.980469 215.808594 167.46875 216.832031 167.46875 L 217.855469 169.519531 L 217.855469 166.441406 C 218.882812 166.953125 219.394531 167.46875 219.90625 167.980469 C 222.46875 166.953125 224.515625 166.441406 225.542969 169.007812 L 227.589844 168.496094 L 226.054688 167.46875 C 227.078125 166.441406 227.078125 167.46875 227.078125 166.441406 C 227.078125 164.390625 227.078125 165.929688 227.078125 165.414062 C 225.542969 164.902344 227.078125 165.929688 224.003906 166.441406 C 224.003906 166.441406 224.003906 165.929688 223.492188 165.929688 C 223.492188 166.441406 223.492188 165.414062 223.492188 165.414062 L 222.46875 162.851562 L 220.929688 164.390625 C 219.90625 163.363281 220.929688 163.363281 218.882812 163.363281 C 219.90625 165.414062 219.394531 163.363281 219.90625 164.902344 C 219.394531 165.414062 219.394531 165.929688 218.371094 165.929688 C 219.394531 164.902344 218.882812 166.441406 218.882812 164.390625 C 218.371094 164.902344 218.371094 164.902344 217.34375 164.390625 L 217.34375 162.335938 C 219.90625 162.851562 223.492188 160.285156 224.003906 164.390625 L 225.03125 163.363281 C 226.054688 164.390625 226.054688 164.390625 227.078125 163.875 C 226.566406 162.851562 226.054688 163.363281 225.03125 161.824219 C 225.542969 161.308594 225.03125 161.308594 225.542969 160.285156 C 226.566406 160.285156 226.054688 160.285156 227.589844 160.285156 C 228.617188 159.769531 229.128906 159.769531 229.640625 159.769531 C 228.617188 161.308594 228.101562 160.285156 227.589844 162.851562 C 229.640625 163.875 227.589844 164.390625 230.152344 164.390625 C 230.152344 165.929688 230.664062 164.902344 229.128906 165.414062 C 230.152344 165.929688 230.664062 165.929688 230.664062 166.953125 C 230.152344 166.441406 229.640625 165.929688 229.128906 165.929688 C 228.617188 167.46875 228.617188 166.953125 230.152344 167.46875 L 229.128906 168.496094 C 230.152344 169.519531 229.128906 168.496094 230.152344 170.035156 L 227.589844 171.574219 C 229.128906 173.113281 228.617188 171.574219 229.640625 173.113281 L 227.589844 173.625 C 229.640625 174.140625 231.175781 175.164062 231.6875 177.21875 C 230.152344 175.679688 228.617188 176.703125 226.566406 175.679688 L 227.589844 174.652344 L 226.566406 173.625 C 227.589844 172.601562 229.640625 172.601562 226.054688 172.085938 C 225.542969 172.601562 225.542969 173.625 225.03125 174.140625 C 224.003906 173.625 224.003906 173.625 224.003906 172.085938 C 222.46875 173.625 220.929688 173.113281 219.90625 173.625 L 221.441406 174.652344 C 222.46875 175.164062 221.957031 174.652344 222.46875 175.164062 C 220.417969 175.164062 220.417969 175.164062 218.882812 175.679688 C 218.882812 173.625 218.882812 174.652344 217.34375 173.625 C 219.90625 172.085938 218.882812 172.085938 220.929688 172.085938 C 220.417969 171.058594 220.929688 172.601562 218.882812 170.035156 C 216.320312 171.058594 217.855469 169.519531 215.296875 170.035156 C 214.785156 170.035156 214.269531 171.574219 213.757812 170.035156 C 213.757812 169.519531 214.269531 170.035156 214.785156 169.007812 C 213.246094 169.007812 212.734375 168.496094 211.710938 169.007812 L 212.222656 170.035156 C 212.222656 172.601562 213.246094 171.574219 213.757812 171.058594 L 213.757812 171.574219 L 214.269531 172.601562 Z M 235.273438 180.296875 C 235.789062 178.246094 234.25 180.296875 235.789062 177.730469 C 235.789062 176.703125 235.273438 177.21875 235.789062 175.679688 C 238.347656 178.757812 238.347656 177.21875 238.347656 178.757812 C 238.347656 178.757812 237.324219 178.757812 237.324219 178.757812 C 236.300781 178.757812 236.8125 178.757812 236.300781 179.269531 C 236.8125 179.269531 237.324219 179.785156 237.835938 180.296875 C 236.8125 180.296875 237.324219 179.785156 236.8125 179.785156 C 235.273438 179.785156 236.8125 179.785156 235.273438 180.296875 Z M 233.226562 175.679688 C 231.6875 172.601562 231.175781 172.601562 231.175781 171.574219 C 230.664062 169.007812 231.175781 169.007812 231.6875 167.46875 C 235.789062 167.980469 234.761719 167.46875 235.789062 165.929688 C 236.8125 167.46875 237.835938 167.980469 239.886719 168.496094 C 236.8125 171.058594 237.324219 170.035156 235.273438 170.035156 C 235.789062 171.058594 235.789062 171.058594 236.8125 171.574219 L 235.789062 172.085938 L 233.226562 174.652344 Z M 180.972656 171.574219 L 177.898438 171.574219 C 177.898438 170.035156 177.898438 170.035156 178.410156 169.007812 C 179.433594 170.035156 180.460938 170.546875 180.972656 171.574219 Z M 139.988281 170.035156 C 138.964844 170.035156 139.476562 170.035156 138.449219 169.519531 C 137.425781 169.007812 137.425781 169.007812 136.914062 168.496094 C 138.449219 167.980469 139.476562 169.519531 139.988281 170.035156 Z M 155.867188 173.625 C 153.820312 173.625 155.355469 173.113281 152.796875 172.601562 C 153.308594 172.085938 152.796875 172.601562 153.820312 171.574219 C 153.308594 171.058594 153.308594 171.058594 152.796875 170.546875 C 153.308594 168.496094 154.332031 169.519531 154.332031 167.46875 C 153.308594 167.980469 154.332031 167.980469 151.257812 167.46875 L 150.746094 168.496094 C 149.722656 166.441406 149.722656 167.980469 148.183594 166.953125 C 149.722656 166.441406 150.234375 166.441406 150.746094 165.414062 L 152.796875 166.441406 C 154.332031 165.929688 152.796875 165.929688 155.867188 166.953125 C 154.332031 171.574219 155.867188 170.035156 154.84375 172.085938 C 155.355469 173.625 155.355469 172.085938 155.867188 173.625 Z M 187.121094 170.035156 L 184.558594 169.519531 C 184.558594 169.007812 184.046875 169.007812 186.09375 168.496094 C 185.070312 167.980469 185.582031 169.007812 185.582031 167.980469 C 185.070312 166.441406 187.121094 166.441406 188.65625 167.980469 Z M 163.042969 167.46875 C 161.503906 166.953125 162.015625 166.953125 160.992188 166.953125 C 159.96875 167.46875 158.941406 167.46875 158.941406 167.46875 L 157.40625 165.929688 C 157.917969 165.414062 157.917969 165.414062 158.429688 164.902344 L 159.96875 163.875 C 160.992188 166.441406 159.96875 164.902344 163.042969 167.46875 Z M 191.730469 164.902344 C 190.191406 165.929688 189.167969 166.441406 188.65625 164.390625 C 189.679688 163.875 191.730469 163.875 191.730469 164.902344 Z M 170.214844 168.496094 C 168.675781 167.980469 170.214844 167.980469 168.675781 166.953125 C 169.699219 165.929688 168.675781 165.929688 167.652344 164.390625 C 169.1875 164.902344 169.1875 164.902344 169.699219 165.929688 C 170.726562 166.953125 170.726562 166.953125 170.214844 168.496094 Z M 204.023438 166.441406 L 201.464844 164.390625 C 204.023438 162.335938 203 164.390625 205.050781 162.851562 C 204.539062 160.796875 205.5625 162.335938 204.023438 161.824219 L 204.539062 160.796875 C 204.539062 161.308594 205.050781 161.308594 205.050781 161.308594 C 206.074219 161.308594 207.097656 161.308594 207.609375 161.824219 C 207.609375 162.335938 206.585938 162.335938 206.074219 162.335938 C 205.5625 163.363281 205.5625 163.875 205.050781 164.902344 C 204.539062 165.929688 205.050781 165.414062 204.023438 166.441406 Z M 208.125 165.414062 C 207.609375 164.902344 208.125 164.902344 207.609375 164.390625 C 206.585938 163.875 207.097656 164.390625 206.074219 163.875 C 206.074219 163.875 206.074219 162.335938 208.125 163.875 L 209.660156 164.902344 C 210.683594 162.335938 209.660156 164.390625 211.195312 163.363281 C 211.195312 162.851562 211.710938 162.851562 210.683594 162.851562 C 209.660156 162.335938 210.171875 163.875 209.148438 163.363281 L 211.195312 161.824219 L 211.710938 162.851562 C 212.222656 162.851562 212.734375 162.851562 213.246094 162.851562 C 212.734375 165.414062 213.246094 162.335938 214.269531 165.929688 C 214.269531 166.953125 214.269531 166.441406 214.785156 167.46875 C 212.734375 165.929688 213.246094 164.390625 210.683594 164.902344 C 210.683594 166.441406 211.195312 165.414062 211.710938 166.441406 L 210.171875 167.980469 Z M 229.128906 162.335938 C 229.640625 161.824219 230.152344 161.824219 230.664062 161.308594 C 230.664062 162.851562 230.664062 162.335938 230.664062 163.363281 Z M 232.203125 161.824219 L 231.6875 160.285156 C 233.738281 159.769531 233.738281 160.285156 234.761719 160.796875 C 236.8125 161.308594 236.300781 160.285156 238.347656 160.796875 C 237.835938 161.824219 237.835938 161.824219 238.347656 163.363281 C 236.300781 164.390625 237.835938 163.875 237.324219 164.902344 C 237.324219 164.390625 236.8125 164.390625 236.300781 163.875 C 237.324219 163.363281 236.8125 163.875 237.324219 162.851562 C 235.789062 159.769531 232.203125 161.824219 232.203125 161.824219 Z M 181.484375 165.414062 C 179.433594 164.902344 181.484375 165.414062 179.945312 164.902344 L 178.410156 163.875 C 177.898438 164.390625 178.410156 164.902344 176.875 165.414062 C 177.386719 163.875 177.386719 163.875 176.875 162.335938 C 178.410156 162.335938 178.921875 162.851562 179.945312 162.851562 C 181.484375 163.363281 181.484375 163.363281 181.484375 165.414062 Z M 216.320312 163.363281 C 214.785156 163.875 214.269531 162.851562 213.757812 162.851562 L 213.246094 162.851562 C 213.246094 162.335938 213.246094 161.824219 214.785156 161.824219 Z M 184.558594 164.390625 L 185.070312 161.824219 L 182.507812 158.746094 C 185.582031 159.769531 186.09375 160.285156 188.65625 160.285156 C 188.65625 161.824219 188.65625 160.285156 188.65625 161.308594 C 188.144531 163.363281 189.167969 161.308594 188.144531 162.851562 L 187.121094 161.308594 L 186.09375 161.824219 C 186.09375 160.285156 186.09375 161.308594 185.582031 160.285156 C 185.582031 160.796875 185.070312 159.257812 185.070312 161.308594 C 185.582031 162.851562 186.605469 162.335938 187.121094 164.390625 L 186.09375 163.363281 C 185.070312 163.875 185.582031 163.875 184.558594 164.390625 Z M 195.828125 158.746094 Z M 194.804688 161.824219 C 194.292969 161.824219 193.265625 162.335938 192.753906 162.335938 L 191.21875 161.824219 C 191.21875 160.285156 192.753906 161.308594 193.777344 161.308594 C 193.777344 159.769531 193.777344 160.796875 192.753906 159.769531 C 193.777344 159.257812 194.804688 158.746094 195.316406 158.746094 C 195.316406 159.257812 195.828125 158.746094 195.828125 158.746094 C 195.828125 158.746094 195.316406 159.257812 194.804688 160.796875 C 195.316406 161.308594 195.316406 161.308594 195.828125 162.335938 C 196.851562 162.335938 196.339844 162.851562 197.878906 161.824219 C 197.878906 162.851562 198.390625 163.363281 198.390625 163.875 L 197.363281 162.851562 C 194.804688 162.851562 195.828125 163.363281 194.292969 163.875 C 194.292969 162.851562 194.804688 163.363281 194.804688 161.824219 Z M 201.464844 161.824219 L 198.902344 160.285156 C 198.390625 159.769531 198.390625 160.285156 198.390625 159.257812 C 199.925781 158.746094 200.953125 158.230469 201.976562 159.257812 C 201.976562 159.769531 201.976562 160.285156 201.464844 160.285156 C 202.488281 161.308594 201.976562 160.285156 201.464844 161.824219 Z M 217.855469 161.824219 C 218.371094 162.335938 217.34375 161.824219 217.855469 161.824219 Z M 214.785156 159.257812 C 213.246094 159.769531 213.757812 159.769531 213.246094 159.257812 C 211.195312 158.746094 211.195312 157.71875 211.195312 155.664062 C 212.734375 156.179688 212.222656 156.179688 214.269531 155.664062 C 214.269531 155.664062 213.757812 155.152344 213.757812 155.664062 L 212.222656 153.613281 C 211.710938 154.125 211.710938 154.640625 211.195312 154.640625 C 210.171875 152.585938 208.636719 152.585938 207.097656 151.046875 C 206.585938 150.019531 207.097656 150.019531 206.585938 148.996094 C 206.074219 148.480469 206.585938 148.996094 206.074219 147.96875 L 209.148438 148.480469 C 209.148438 146.941406 209.148438 147.453125 208.636719 146.429688 L 211.195312 148.480469 L 213.246094 147.96875 L 213.246094 148.996094 C 214.785156 148.996094 215.808594 149.507812 216.320312 150.019531 C 216.320312 148.480469 216.320312 148.996094 215.296875 147.96875 C 215.808594 147.453125 215.808594 147.453125 217.34375 146.941406 L 215.808594 148.480469 C 217.855469 148.480469 217.34375 149.507812 217.855469 151.558594 C 215.808594 151.046875 215.296875 149.507812 212.734375 149.507812 C 212.734375 150.535156 213.246094 151.046875 211.710938 152.074219 L 214.785156 153.101562 C 214.785156 152.074219 214.269531 152.585938 214.269531 151.558594 L 214.269531 150.535156 C 215.808594 151.046875 215.808594 151.558594 217.34375 153.101562 L 215.808594 153.101562 L 218.882812 155.664062 L 219.394531 153.613281 L 221.441406 153.613281 C 220.929688 152.585938 220.417969 152.074219 219.90625 150.535156 C 221.441406 150.535156 222.980469 152.074219 224.003906 153.101562 C 225.542969 154.640625 223.492188 154.640625 224.515625 155.152344 C 225.542969 156.179688 225.542969 155.664062 226.054688 155.152344 C 227.078125 155.152344 227.589844 154.640625 227.589844 154.125 C 228.101562 153.101562 227.589844 153.101562 228.617188 152.585938 C 228.617188 152.585938 229.640625 152.585938 229.640625 154.125 C 229.128906 155.152344 229.128906 154.640625 228.101562 155.152344 C 229.128906 155.664062 229.128906 155.152344 229.640625 156.179688 L 228.617188 158.746094 L 226.054688 157.203125 C 226.054688 159.257812 227.589844 158.746094 226.054688 160.285156 C 224.515625 158.230469 225.542969 158.230469 224.515625 156.179688 C 223.492188 155.664062 224.003906 155.664062 222.980469 155.664062 C 221.441406 155.664062 221.957031 155.664062 219.90625 154.640625 C 219.394531 156.691406 219.90625 155.152344 220.417969 156.179688 C 221.441406 157.203125 220.929688 156.691406 220.417969 158.230469 C 221.957031 157.203125 221.441406 158.230469 221.441406 158.230469 L 221.957031 156.691406 C 222.980469 157.203125 223.492188 156.691406 221.957031 158.746094 L 223.492188 160.796875 C 221.957031 160.796875 222.980469 160.285156 222.46875 161.308594 C 221.441406 160.796875 221.441406 160.796875 219.394531 160.796875 C 219.394531 161.308594 219.90625 161.308594 219.90625 162.335938 L 217.855469 161.824219 C 217.855469 161.308594 217.34375 160.796875 216.832031 160.285156 L 218.371094 159.769531 C 219.394531 158.230469 218.882812 159.257812 217.855469 158.746094 L 219.394531 157.71875 C 217.855469 156.691406 218.371094 158.230469 217.34375 156.691406 C 218.371094 156.179688 219.394531 156.691406 220.417969 157.203125 C 219.90625 156.179688 219.394531 155.664062 218.371094 155.664062 C 216.320312 155.664062 218.371094 155.152344 215.296875 154.125 C 215.296875 157.203125 214.785156 156.691406 216.832031 157.203125 C 216.320312 158.746094 216.320312 157.71875 216.832031 158.230469 C 216.832031 158.746094 216.832031 158.230469 217.34375 159.257812 L 216.320312 160.285156 C 214.269531 158.746094 215.808594 158.746094 213.757812 156.179688 C 213.246094 158.230469 214.785156 157.203125 214.785156 159.257812 Z M 147.160156 160.796875 C 146.648438 161.308594 145.109375 161.824219 144.597656 162.335938 L 143.574219 161.308594 C 144.085938 160.796875 144.597656 160.285156 145.109375 159.769531 C 143.0625 159.769531 144.085938 160.285156 143.0625 159.769531 C 144.085938 158.746094 144.085938 158.746094 144.597656 159.769531 C 145.621094 160.285156 146.136719 160.285156 147.160156 160.796875 Z M 165.601562 166.953125 C 164.066406 167.980469 166.113281 166.441406 163.042969 166.441406 C 163.042969 163.363281 163.554688 166.953125 160.992188 162.851562 C 158.429688 161.308594 158.941406 161.308594 157.40625 161.308594 C 158.941406 158.230469 156.382812 161.308594 158.941406 158.230469 C 158.429688 159.769531 158.941406 159.769531 160.992188 159.257812 L 159.96875 157.71875 C 162.015625 157.203125 161.503906 158.746094 163.042969 159.769531 C 164.066406 159.257812 163.554688 159.257812 164.066406 158.230469 C 165.089844 159.769531 164.066406 159.257812 166.113281 159.769531 C 166.113281 161.308594 166.113281 160.285156 166.113281 162.335938 C 165.089844 162.851562 165.089844 162.335938 164.066406 162.851562 C 164.578125 164.390625 163.554688 163.363281 166.628906 163.875 C 165.089844 165.414062 165.601562 163.875 165.089844 165.414062 C 165.601562 165.414062 167.140625 166.441406 165.601562 166.953125 Z M 179.945312 161.824219 C 178.921875 160.796875 179.433594 161.308594 179.433594 160.285156 L 180.460938 159.257812 C 182.507812 159.257812 180.972656 158.746094 181.996094 161.308594 C 180.460938 160.796875 181.996094 161.308594 180.460938 160.285156 C 180.460938 162.851562 181.996094 161.308594 181.996094 162.851562 C 181.484375 162.851562 180.460938 162.851562 179.945312 161.824219 Z M 179.433594 158.230469 C 177.898438 158.746094 177.386719 159.257812 175.335938 158.746094 C 172.261719 156.691406 175.335938 158.230469 172.773438 156.179688 C 175.335938 155.152344 176.875 154.125 177.386719 158.746094 C 178.921875 158.230469 178.410156 158.230469 179.433594 158.230469 Z M 136.402344 157.203125 C 137.9375 158.746094 137.9375 158.746094 137.425781 160.285156 C 136.402344 160.285156 137.425781 160.796875 136.914062 160.285156 C 135.375 159.257812 135.890625 158.230469 135.375 156.691406 C 136.402344 157.203125 135.890625 156.691406 136.402344 157.203125 Z M 205.5625 157.71875 C 204.539062 158.230469 204.539062 158.230469 204.023438 157.71875 C 204.023438 157.71875 203.511719 157.203125 203 156.691406 L 204.539062 156.179688 C 205.050781 156.691406 205.050781 157.203125 205.5625 157.71875 Z M 189.679688 159.769531 C 188.144531 158.230469 188.144531 158.746094 188.65625 157.203125 L 191.21875 156.179688 C 190.707031 157.71875 190.707031 156.691406 190.191406 157.203125 C 190.707031 158.230469 190.191406 157.203125 189.679688 159.257812 Z M 195.316406 158.230469 C 193.777344 157.71875 195.316406 157.203125 192.753906 157.203125 C 192.753906 157.203125 193.265625 156.691406 193.265625 156.691406 L 193.777344 156.179688 C 192.242188 155.664062 192.242188 156.179688 191.730469 156.179688 L 193.265625 155.152344 C 195.828125 157.203125 195.316406 156.691406 195.316406 158.230469 Z M 148.183594 156.691406 C 148.183594 156.691406 149.210938 157.71875 146.136719 156.691406 C 145.109375 158.746094 144.085938 158.230469 143.574219 157.71875 C 143.574219 155.664062 143.0625 157.203125 144.085938 156.691406 C 145.621094 156.179688 147.671875 155.664062 148.183594 156.691406 Z M 196.339844 159.257812 L 195.828125 156.691406 L 197.878906 157.203125 C 198.390625 155.664062 197.878906 155.664062 199.414062 154.640625 C 196.851562 153.101562 196.851562 153.101562 196.851562 152.074219 L 198.902344 152.074219 C 198.902344 153.101562 198.390625 152.585938 197.878906 153.613281 L 198.902344 154.125 C 200.4375 155.664062 200.953125 154.640625 201.976562 156.691406 C 200.4375 157.203125 200.953125 157.203125 199.414062 156.179688 L 198.902344 157.71875 C 197.363281 158.230469 198.390625 157.203125 196.339844 159.257812 Z M 184.558594 150.019531 C 185.070312 149.507812 184.558594 150.019531 184.558594 150.019531 Z M 184.558594 150.019531 C 184.046875 150.019531 184.046875 150.019531 184.558594 150.019531 Z M 187.632812 153.613281 C 187.121094 153.613281 185.582031 153.613281 186.605469 151.046875 C 185.582031 150.535156 185.070312 150.535156 184.558594 150.019531 L 186.09375 149.507812 C 186.09375 148.480469 186.09375 148.996094 185.582031 147.96875 L 180.972656 146.429688 C 179.433594 145.914062 177.386719 147.96875 179.433594 145.402344 C 181.996094 145.914062 181.484375 145.402344 181.996094 146.429688 C 182.507812 145.402344 182.507812 145.402344 183.019531 144.890625 L 188.144531 147.453125 C 188.65625 146.429688 188.65625 145.914062 188.65625 144.890625 L 190.191406 147.453125 C 192.242188 146.941406 190.707031 146.429688 193.265625 146.429688 C 193.777344 147.96875 193.777344 148.480469 193.777344 150.535156 C 192.753906 149.507812 192.753906 148.996094 192.242188 147.96875 C 190.707031 148.480469 190.707031 147.96875 190.191406 149.507812 C 190.707031 150.535156 189.679688 150.019531 192.242188 150.019531 C 192.242188 152.585938 192.753906 152.074219 194.804688 152.074219 C 195.316406 153.101562 194.804688 152.585938 195.828125 153.613281 C 193.265625 155.152344 191.730469 152.074219 189.679688 152.074219 C 189.167969 153.101562 189.167969 152.074219 189.679688 153.613281 C 188.65625 153.101562 188.65625 153.101562 187.632812 153.613281 Z M 172.773438 154.125 L 170.214844 155.152344 C 168.675781 155.152344 169.699219 154.640625 169.1875 154.640625 L 171.238281 154.125 C 170.726562 152.585938 171.238281 152.585938 171.238281 152.585938 Z M 154.332031 157.71875 C 153.308594 157.203125 153.820312 157.203125 153.308594 156.691406 C 152.28125 156.179688 152.796875 157.203125 152.28125 155.664062 C 154.332031 155.152344 153.820312 156.179688 154.84375 155.152344 C 153.820312 154.125 152.796875 154.640625 152.796875 152.074219 L 153.820312 151.558594 C 154.332031 152.585938 154.332031 152.074219 154.332031 153.613281 C 154.84375 153.101562 154.84375 153.101562 155.355469 152.585938 C 155.867188 153.101562 156.894531 153.613281 157.40625 155.152344 C 156.894531 155.152344 156.894531 155.152344 155.867188 155.664062 C 154.332031 156.179688 154.84375 156.179688 154.332031 156.691406 C 154.332031 157.203125 154.84375 157.203125 154.332031 157.71875 Z M 176.875 152.585938 C 175.847656 154.125 174.824219 152.585938 173.800781 152.074219 C 174.3125 151.558594 173.800781 151.558594 174.3125 151.046875 C 175.847656 152.074219 174.3125 152.074219 176.875 152.585938 Z M 167.140625 151.558594 C 166.628906 152.074219 165.089844 152.585938 164.066406 152.074219 C 164.578125 151.558594 164.578125 151.558594 164.578125 150.535156 C 165.601562 150.019531 164.578125 150.019531 166.113281 150.019531 C 166.113281 151.046875 166.113281 150.535156 165.601562 151.046875 C 167.140625 151.046875 166.628906 150.019531 167.140625 151.558594 Z M 177.898438 152.074219 C 175.335938 151.558594 174.824219 149.507812 177.898438 149.507812 C 177.386719 150.535156 177.386719 149.507812 177.386719 150.535156 C 177.386719 150.535156 177.898438 151.046875 177.898438 152.074219 Z M 165.089844 148.996094 C 163.554688 151.046875 160.480469 150.019531 159.96875 149.507812 L 162.015625 148.480469 L 163.042969 148.996094 C 164.066406 147.96875 163.554688 147.96875 165.089844 148.996094 Z M 168.675781 150.019531 L 166.113281 148.996094 C 169.1875 146.429688 167.652344 148.480469 168.675781 146.429688 L 168.675781 145.914062 C 169.1875 147.453125 170.214844 147.96875 170.214844 148.996094 C 169.1875 148.996094 170.214844 148.480469 168.164062 147.96875 C 168.164062 148.996094 168.675781 148.996094 168.675781 150.019531 Z M 173.800781 150.535156 C 172.773438 150.019531 172.261719 149.507812 171.238281 149.507812 L 172.261719 148.480469 L 172.261719 147.453125 L 173.285156 146.941406 C 174.3125 148.996094 172.773438 147.96875 174.824219 148.480469 C 173.800781 149.507812 174.3125 149.507812 173.800781 150.535156 Z M 166.628906 146.429688 L 165.601562 145.402344 L 167.652344 143.351562 C 168.164062 143.863281 168.675781 144.375 169.1875 145.402344 C 167.652344 144.890625 168.675781 144.890625 167.140625 144.375 C 167.140625 144.375 166.628906 143.351562 166.628906 145.402344 Z M 196.339844 144.890625 C 195.316406 145.402344 195.316406 145.402344 194.292969 145.402344 C 194.804688 144.375 194.804688 144.375 194.804688 143.351562 C 195.828125 143.351562 195.828125 144.375 196.339844 144.890625 Z M 176.359375 144.890625 C 175.847656 143.863281 175.847656 144.375 176.359375 143.351562 C 176.875 143.351562 177.386719 143.351562 177.386719 143.863281 C 177.386719 143.863281 176.875 144.375 176.875 144.375 C 176.359375 145.402344 176.875 144.375 176.359375 144.890625 Z M 192.753906 144.890625 C 191.730469 144.375 191.21875 144.890625 189.679688 144.375 L 191.730469 143.351562 C 192.753906 142.835938 190.707031 142.324219 193.265625 142.835938 C 193.777344 144.375 193.265625 143.351562 192.753906 144.890625 Z M 159.96875 143.351562 C 158.429688 144.375 158.429688 143.351562 158.429688 143.351562 C 158.429688 142.324219 157.917969 142.835938 158.941406 142.324219 C 159.96875 141.296875 159.96875 142.324219 159.96875 142.324219 C 159.96875 142.324219 160.480469 142.835938 159.96875 143.351562 Z M 172.261719 144.375 C 170.726562 143.863281 170.726562 143.351562 170.214844 142.324219 C 171.238281 141.808594 170.726562 141.808594 171.238281 140.785156 L 173.285156 143.863281 L 172.773438 145.402344 Z M 201.464844 144.375 L 200.953125 143.351562 C 200.953125 140.269531 201.464844 140.785156 198.902344 138.21875 C 200.4375 138.730469 200.4375 139.246094 201.464844 140.785156 C 202.488281 141.808594 201.976562 140.785156 202.488281 141.808594 C 203 141.808594 202.488281 141.296875 203.511719 141.808594 C 203 142.324219 202.488281 142.324219 201.464844 142.835938 C 202.488281 143.351562 201.976562 142.835938 201.976562 143.863281 C 201.464844 144.375 201.976562 143.863281 201.464844 144.375 Z M 173.285156 139.757812 C 173.285156 139.246094 173.285156 139.757812 172.773438 138.730469 C 172.773438 138.21875 172.773438 138.730469 172.773438 138.21875 C 173.800781 137.703125 174.3125 137.191406 174.824219 136.679688 L 174.824219 138.730469 C 173.285156 138.21875 174.3125 137.703125 173.285156 139.757812 Z M 171.75 135.140625 C 171.238281 137.191406 172.261719 136.164062 170.726562 136.679688 C 170.214844 134.113281 171.238281 135.140625 173.800781 133.601562 C 174.3125 134.113281 174.3125 134.113281 174.3125 134.625 C 173.285156 135.652344 173.800781 135.140625 171.75 135.140625 Z M 169.699219 135.140625 C 168.164062 135.140625 165.601562 135.140625 165.601562 133.085938 C 166.113281 131.035156 165.601562 132.574219 166.628906 132.058594 C 167.140625 133.085938 165.601562 134.625 168.164062 134.113281 C 169.1875 134.113281 169.1875 134.113281 169.699219 133.601562 C 169.699219 135.140625 169.1875 133.601562 169.699219 135.140625 Z M 196.851562 217.246094 C 196.339844 215.191406 195.316406 214.679688 198.902344 214.164062 C 198.390625 215.703125 199.414062 215.191406 196.851562 217.246094 Z M 176.359375 141.296875 Z M 219.90625 146.941406 Z M 208.125 221.351562 C 205.5625 221.863281 204.539062 221.351562 203.511719 219.808594 C 205.5625 219.296875 206.074219 218.269531 208.125 221.351562 Z M 209.660156 221.863281 C 209.660156 221.351562 209.660156 220.835938 210.171875 220.324219 C 211.710938 220.324219 211.710938 220.324219 212.222656 221.863281 Z M 240.398438 199.796875 C 237.835938 200.824219 237.324219 199.285156 237.835938 198.257812 C 239.375 197.746094 240.398438 198.257812 240.398438 199.796875 Z M 192.242188 154.125 C 191.730469 155.152344 190.191406 156.179688 190.191406 152.585938 Z M 220.929688 144.375 C 219.394531 144.375 218.882812 144.890625 218.371094 142.835938 C 220.417969 142.324219 220.417969 142.835938 220.929688 144.375 Z M 208.125 141.296875 C 208.125 142.324219 207.609375 142.324219 206.074219 143.351562 C 205.5625 142.324219 205.5625 142.324219 205.5625 141.296875 C 206.074219 140.785156 207.609375 140.269531 208.125 141.296875 Z M 160.992188 141.296875 C 159.96875 140.785156 160.480469 140.785156 159.453125 140.269531 C 157.917969 139.757812 158.429688 140.269531 157.917969 138.730469 C 159.96875 138.21875 161.503906 138.730469 160.992188 141.296875 Z M 169.699219 208.007812 Z M 196.339844 170.035156 C 196.851562 169.519531 195.316406 170.546875 196.339844 170.035156 Z M 204.023438 161.308594 C 204.023438 161.308594 204.023438 160.796875 204.023438 161.308594 Z M 204.023438 161.308594 " fill-opacity="1" fill-rule="evenodd"/></g></svg>