<svg xmlns="http://www.w3.org/2000/svg" version="1.1" xmlns:xlink="http://www.w3.org/1999/xlink" xmlns:svgjs="http://svgjs.com/svgjs" width="512" height="512" x="0" y="0" viewBox="0 0 512 512" style="enable-background:new 0 0 512 512" xml:space="preserve" class=""><g><g data-name="3.New Post"><path fill="#cfdce5" d="m316.95 216.5 24.46 108.88a15.728 15.728 0 0 0 30.53.78l18.73-67.21v54.59a69.325 69.325 0 0 1-22.36 51.08 35.348 35.348 0 0 0-23.77 9.63 35.708 35.708 0 0 0-5.48 6.48 69.304 69.304 0 0 1-17.93 2.35h-26.47q-18.856-18.03-44.54-18.49a68.387 68.387 0 0 0-48 18.49h-45.34a30.968 30.968 0 0 0-13.91-11.3q-9.405-3.93-30.71-3.93H95.83a9.916 9.916 0 0 0-9.91 9.92v5.24a69.545 69.545 0 0 1-66.42-69.47V81.01a69.53 69.53 0 0 1 69.54-69.52h232.09A69.268 69.268 0 0 1 362.6 25.2c-.01.11-.01.21-.01.32v42.42h-42.35a14.538 14.538 0 0 0-14.53 14.54v.01a14.53 14.53 0 0 0 14.53 14.53h42.35v42.43a14.527 14.527 0 0 0 28.08 5.22v56.95a14.238 14.238 0 0 0-10.8 10.12l-19.19 68.84a2.04 2.04 0 0 1-3.96-.11l-15.6-69.46a12.381 12.381 0 0 0-12.07-9.71h-.01a12.436 12.436 0 0 0-12.09 15.2z" data-original="#cfdce5" class=""></path><path fill="#f7f5fb" d="m316.95 216.5 24.46 108.88a14.564 14.564 0 0 0 .74 2.38 25.339 25.339 0 0 1-21.02 11.15H89.04a25.372 25.372 0 0 1-25.37-25.37V81.02a25.366 25.366 0 0 1 25.37-25.37h232.09a25.365 25.365 0 0 1 21.75 12.29h-22.64a14.538 14.538 0 0 0-14.53 14.54v.01a14.53 14.53 0 0 0 14.53 14.53h26.26v137.94l-5.38-23.95a12.381 12.381 0 0 0-12.07-9.71h-.01a12.436 12.436 0 0 0-12.09 15.2z" data-original="#f7f5fb" class=""></path><g fill="#f17b89"><path d="M433.986 67.945h-42.35V25.522A14.522 14.522 0 0 0 377.116 11h-.002a14.522 14.522 0 0 0-14.522 14.522v42.423h-42.35a14.531 14.531 0 0 0-14.53 14.53v.017a14.531 14.531 0 0 0 14.53 14.53h42.35v42.424a14.522 14.522 0 0 0 14.522 14.522h.002a14.522 14.522 0 0 0 14.522-14.522V97.023h42.349a14.53 14.53 0 0 0 14.53-14.531v-.016a14.53 14.53 0 0 0-14.53-14.531zM85.916 377.763a9.915 9.915 0 0 1 9.92-9.91h16.326q21.295 0 30.708 3.928a31.227 31.227 0 0 1 14.846 12.715q5.435 8.787 5.434 21.058 0 13.597-7.113 22.603a36.902 36.902 0 0 1-19.309 12.538q-5.907 1.677-19.818 1.969a6.4 6.4 0 0 0-6.25 6.4v36.308a12.366 12.366 0 0 1-12.372 12.361 12.366 12.366 0 0 1-12.372-12.361zm24.744 33.883a6.978 6.978 0 0 0 6.981 6.975h.884q9.278 0 12.902-1.328a11.478 11.478 0 0 0 5.7-4.385 12.853 12.853 0 0 0 2.076-7.397q0-7.53-5.832-10.985-4.242-2.568-15.73-2.57a6.978 6.978 0 0 0-6.981 6.976zM250.116 364.598q26.706.488 46.06 19.942 19.852 19.954 19.852 48.65 0 28.43-19.587 48.12T248.912 501q-29.27 0-48.634-20.22-19.365-20.217-19.365-48.031a67.444 67.444 0 0 1 34.657-59.501 68.151 68.151 0 0 1 34.546-8.65zm-1.646 24.18q-18.048 0-30.342 12.538-12.296 12.537-12.295 31.874 0 21.544 15.48 34.081a42.46 42.46 0 0 0 27.6 9.801 40.317 40.317 0 0 0 29.987-12.714q12.385-12.715 12.385-31.345 0-18.541-12.473-31.388a40.697 40.697 0 0 0-30.342-12.847zM398.16 393.816a11.879 11.879 0 0 1-15.717.093q-6.348-5.66-12.844-5.66a11.965 11.965 0 0 0-7.967 2.604 7.583 7.583 0 0 0-3.099 5.871 10.045 10.045 0 0 0 2.214 6.181q3.009 3.887 18.145 16.688 14.163 11.833 17.175 14.921 7.522 7.596 10.666 14.525a36.25 36.25 0 0 1 3.142 15.142q0 15.981-11.058 26.4T369.978 501q-13.888 0-24.195-6.799a44.552 44.552 0 0 1-10.55-9.97 11.989 11.989 0 0 1 3.248-17.634l.45-.271a12.147 12.147 0 0 1 15.594 2.404q7.28 8.784 16.003 8.784a15.909 15.909 0 0 0 10.71-3.708q4.336-3.709 4.336-8.565a14.78 14.78 0 0 0-3.275-8.83q-3.277-4.414-14.429-13.508-21.246-17.304-27.442-26.71-6.197-9.403-6.196-18.762 0-13.509 10.307-23.177t25.437-9.668a40.162 40.162 0 0 1 18.535 4.503 47.975 47.975 0 0 1 9.54 6.68 12.001 12.001 0 0 1 .108 18.047zM432.851 367.852h47.454a12.19 12.19 0 0 1 12.195 12.185 12.19 12.19 0 0 1-12.195 12.184h-5.025a6.46 6.46 0 0 0-6.463 6.458v86.516a12.543 12.543 0 0 1-12.548 12.538 12.543 12.543 0 0 1-12.548-12.538V398.68a6.46 6.46 0 0 0-6.463-6.458h-4.407a12.19 12.19 0 0 1-12.195-12.184 12.19 12.19 0 0 1 12.195-12.185zM102.012 201.175a16.038 16.038 0 0 1 13.46 7.353l48.904 75.71a2.369 2.369 0 0 0 4.359-1.297l.036-68.747a12.948 12.948 0 0 1 12.92-12.976 12.948 12.948 0 0 1 12.906 12.99l-.057 107.232a16.155 16.155 0 0 1-16.12 16.19 16.09 16.09 0 0 1-13.495-7.364l-48.818-75.434a2.369 2.369 0 0 0-4.358 1.299l-.037 68.48a12.948 12.948 0 0 1-12.919 12.977 12.948 12.948 0 0 1-12.906-12.99l.057-107.285a16.104 16.104 0 0 1 16.068-16.137zM234.67 201.246l52.674.028a12.44 12.44 0 0 1 12.399 12.48v.464a12.44 12.44 0 0 1-12.412 12.466l-30.454-.016a5.579 5.579 0 0 0-5.566 5.59l-.007 13.481a5.579 5.579 0 0 0 5.56 5.597l30.454.016a12.44 12.44 0 0 1 12.398 12.48 12.44 12.44 0 0 1-12.412 12.466l-30.454-.016a5.579 5.579 0 0 0-5.566 5.59l-.013 24.702a5.579 5.579 0 0 0 5.56 5.597l30.454.016a12.44 12.44 0 0 1 12.399 12.48v.556a12.44 12.44 0 0 1-12.412 12.467l-52.674-.028a9.01 9.01 0 0 1-8.98-9.038l.063-118.348a9.009 9.009 0 0 1 8.99-9.03zM329.044 201.296h.003a12.402 12.402 0 0 1 12.077 9.712l15.6 69.467a2.038 2.038 0 0 0 3.956.102l19.189-68.836a14.194 14.194 0 0 1 13.663-10.41 14.193 14.193 0 0 1 13.637 10.372l19.42 68.936a2.038 2.038 0 0 0 3.955-.11l15.547-69.75a11.991 11.991 0 0 1 11.694-9.415h.323a12.451 12.451 0 0 1 12.134 15.2L445.79 325.416a15.77 15.77 0 0 1-15.373 12.348h-.284a15.764 15.764 0 0 1-15.142-11.505l-19.719-69.716a2.038 2.038 0 0 0-3.928.007l-19.405 69.612a15.764 15.764 0 0 1-15.175 11.562 15.77 15.77 0 0 1-15.356-12.348l-24.454-108.882a12.438 12.438 0 0 1 12.09-15.199z" fill="#f17b89" data-original="#f17b89"></path></g><path fill="#bcc6cc" d="M129.31 368.69a152.42 152.42 0 0 0-17.15-.84H95.83a9.916 9.916 0 0 0-9.91 9.92v5.24a69.545 69.545 0 0 1-66.42-69.47V81.01a69.53 69.53 0 0 1 69.54-69.52h12.56a501.994 501.994 0 0 0 27.71 357.2z" data-original="#bcc6cc"></path><path fill="#e4e3e8" d="M116.31 338.91H89.04a25.372 25.372 0 0 1-25.37-25.37V81.02a25.366 25.366 0 0 1 25.37-25.37h1.63a502.893 502.893 0 0 0 25.64 283.26z" data-original="#e4e3e8"></path><path fill="#d36e7f" d="M111.57 326.53a12.906 12.906 0 0 1-25.68-1.91v-.02l.05-100.07a495.84 495.84 0 0 0 25.63 102zM129.31 368.69a152.42 152.42 0 0 0-17.15-.84H95.84a9.916 9.916 0 0 0-9.92 9.91v107.61a12.37 12.37 0 0 0 24.74 0v-36.31a6.408 6.408 0 0 1 6.25-6.4q13.905-.285 19.82-1.97a36.925 36.925 0 0 0 19.31-12.53 30.51 30.51 0 0 0 3.35-5.27 497.702 497.702 0 0 1-30.08-54.2zm7.82 44.22a11.463 11.463 0 0 1-5.7 4.38q-3.63 1.335-12.91 1.33h-.88a6.978 6.978 0 0 1-6.98-6.97v-12.72a6.982 6.982 0 0 1 6.98-6.97q11.49 0 15.73 2.57 5.835 3.45 5.83 10.98a12.902 12.902 0 0 1-2.07 7.4z" data-original="#d36e7f"></path></g></g></svg>