<svg width="200" height="200" viewBox="0 0 200 200" fill="none" xmlns="http://www.w3.org/2000/svg">
<path d="M99.6875 94.6875V193.75C99.6875 193.75 140.625 165 169.375 156.562C169.375 156.562 170.625 95.3125 188.437 64.6875L99.6875 94.6875Z" fill="#076170"/>
<path d="M125.312 178.75C125.312 178.75 126.875 90.9375 130 86.5625C133.125 81.875 160 77.1875 160 77.1875C160 77.1875 149.063 159.375 151.563 164.688C151.875 164.375 140.625 169.063 125.312 178.75Z" fill="#B3690E"/>
<path d="M99.6875 193.75C99.6875 193.75 70.9375 169.375 26.25 156.562C26.25 156.562 29.6875 106.25 13.4375 67.8125L99.6875 94.6875V193.75Z" fill="#3BAACF"/>
<path d="M44.375 164.688C44.375 164.688 70.625 175.312 72.5 178.75C74.375 182.188 74.375 90.3125 74.375 90.3125C74.375 90.3125 38.4375 80.3125 35.3125 80.3125C35.3125 80.3125 46.25 117.5 44.375 164.688Z" fill="#E9C243"/>
<path opacity="0.3" d="M99.6875 94.6875V111.25L180 83.75C182.187 76.875 185 70.3125 188.125 64.6875L99.6875 94.6875ZM19.0625 85C17.5 79.0625 15.625 73.4375 13.125 67.8125L99.375 94.6875V111.25L19.0625 85Z" fill="black"/>
<path d="M6.25 59.0625L95.3125 78.75L193.75 55L97.1875 49.6875L6.25 59.0625Z" fill="#4FC7E8"/>
<path d="M6.25 59.0625L13.4375 78.75L95.3125 101.875V78.75L6.25 59.0625Z" fill="#3BAACF"/>
<path d="M95.3125 101.875C95.3125 101.875 169.688 74.375 188.125 73.125C188.125 73.125 189.375 62.1875 193.75 55.3125L95.3125 78.75V101.875Z" fill="#076170"/>
<path d="M32.8125 65L50.9375 82.1875L70.9375 73.125L100 64.375L136.25 68.75L155.313 72.5L170.625 60.625L32.8125 65Z" fill="#F0AE11"/>
<path d="M70.9375 73.125L100 64.375L136.25 68.75L170.625 60.625L98.125 53.75L32.8125 65L70.9375 73.125Z" fill="#F0AE11"/>
<path d="M32.8125 65V86.875L69.375 96.875L70.9375 73.125L32.8125 65Z" fill="#F8D048"/>
<path d="M136.25 68.75L136.875 89.6875L168.125 80.3125L170.625 60.625L136.25 68.75Z" fill="#C47116"/>
<path d="M116.563 54.0625C116.563 54.0625 116.562 32.1875 137.812 13.125C137.812 13.125 125 17.8125 118.75 16.5625C111.25 15.3125 108.75 6.25 108.75 6.25C108.75 6.25 90.625 45.625 95.9375 50.625C101.25 55.9375 116.563 54.0625 116.563 54.0625Z" fill="#EA9F07"/>
<path d="M88.75 66.875C88.75 66.875 76.5625 41.875 50.625 28.75C50.625 28.75 70.9375 26.875 75.625 24.375C81.5625 21.5625 85 13.75 85 13.75C85 13.75 107.5 53.125 105.625 59.0625C103.75 65 88.75 66.875 88.75 66.875Z" fill="#F8D048"/>
<path d="M101.875 64.0625C101.875 64.0625 82.8125 71.5625 58.4375 71.5625C7.18752 71.25 1.40667e-05 34.375 50.625 37.8125C92.1875 40.9375 101.875 64.0625 101.875 64.0625Z" fill="#EA9F07"/>
<path d="M98.4375 63.75C98.4375 63.75 120.937 65.625 141.875 60.3125C185.625 49.0625 169.375 15.9375 128.125 30C94.375 41.5625 98.4375 63.75 98.4375 63.75Z" fill="#F0AE11"/>
<path d="M101.875 64.0625C101.875 64.0625 90 68.75 74.6875 68.75C42.8125 68.75 38.125 45.625 69.6875 47.8125C95.625 49.6875 101.875 64.0625 101.875 64.0625Z" fill="#824000"/>
<path d="M101.875 64.0625C101.875 64.0625 117.5 65.3125 132.187 61.5625C162.812 53.75 151.25 30.625 122.812 40.3125C99.0625 48.4375 101.875 64.0625 101.875 64.0625Z" fill="#824000"/>
</svg>
