<svg xmlns="http://www.w3.org/2000/svg" version="1.1" xmlns:xlink="http://www.w3.org/1999/xlink" xmlns:svgjs="http://svgjs.com/svgjs" width="512" height="512" x="0" y="0" viewBox="0 0 512 512" style="enable-background:new 0 0 512 512" xml:space="preserve" class=""><g><path fill="#eab14d" d="m139.4 323.167 41.098-9.68a4.147 4.147 0 0 1 4.79 2.47l15.942 39.097c1.337 3.278 5.902 3.481 7.524.335l94.087-182.437-73.99-38.158-94.086 182.436c-1.623 3.147 1.189 6.748 4.635 5.937z" data-original="#eab14d"></path><path fill="#e7a52e" d="m266.864 154.397-82.578 160.122c.42.396.772.874 1.003 1.438l15.942 39.097c1.337 3.278 5.902 3.481 7.524.335l94.087-182.437z" data-original="#e7a52e" class=""></path><path fill="#eab14d" d="m372.6 323.167-41.098-9.68a4.147 4.147 0 0 0-4.79 2.47l-15.942 39.097c-1.337 3.278-5.902 3.481-7.524.335l-94.087-182.437 73.99-38.158 94.087 182.437c1.622 3.146-1.19 6.747-4.636 5.936z" data-original="#eab14d"></path><path fill="#e7a52e" d="m377.236 317.23-94.087-182.437-35.476 18.296 82.674 160.307a4.117 4.117 0 0 1 1.155.09l41.098 9.68c3.446.812 6.258-2.789 4.636-5.936z" data-original="#e7a52e" class=""></path><path fill="#fc8086" d="M275.684 16.924a25.269 25.269 0 0 0 28.809 7.719c15.042-5.825 31.617 3.745 34.094 19.684a25.27 25.27 0 0 0 21.09 21.09c15.94 2.477 25.509 19.052 19.684 34.094a25.27 25.27 0 0 0 7.719 28.809c12.566 10.115 12.566 29.254 0 39.368a25.269 25.269 0 0 0-7.719 28.809c5.825 15.042-3.745 31.617-19.684 34.094a25.27 25.27 0 0 0-21.09 21.09c-2.477 15.94-19.052 25.509-34.094 19.684a25.27 25.27 0 0 0-28.809 7.719c-10.115 12.566-29.254 12.566-39.368 0a25.269 25.269 0 0 0-28.809-7.719c-15.042 5.825-31.617-3.745-34.094-19.684a25.27 25.27 0 0 0-21.09-21.09c-15.94-2.477-25.509-19.052-19.684-34.094a25.27 25.27 0 0 0-7.719-28.809c-12.566-10.115-12.566-29.254 0-39.368a25.269 25.269 0 0 0 7.719-28.809c-5.825-15.042 3.745-31.617 19.684-34.094a25.27 25.27 0 0 0 21.09-21.09c2.477-15.94 19.052-25.509 34.094-19.684a25.27 25.27 0 0 0 28.809-7.719c10.114-12.565 29.254-12.565 39.368 0z" data-original="#fc8086" class=""></path><circle cx="256" cy="148.005" r="94.762" fill="#fbe77b" data-original="#fbe77b"></circle><path fill="#ffd064" d="M256 53.242a94.612 94.612 0 0 0-30.722 5.095c37.256 12.762 64.04 48.085 64.04 89.667s-26.784 76.906-64.04 89.667A94.616 94.616 0 0 0 256 242.766c52.336 0 94.762-42.427 94.762-94.762S308.336 53.242 256 53.242z" data-original="#ffd064" class=""></path><path fill="#e7a52e" d="m257.843 178.181 30.149 19.928c2.578 1.704 5.889-.702 5.065-3.68l-9.636-34.832a3.344 3.344 0 0 1 1.139-3.506l28.27-22.515c2.417-1.925 1.152-5.817-1.935-5.954l-36.105-1.599a3.341 3.341 0 0 1-2.982-2.167L259.13 90.013c-1.084-2.893-5.177-2.893-6.26 0l-12.678 33.844a3.342 3.342 0 0 1-2.982 2.167l-36.105 1.599c-3.087.137-4.351 4.029-1.935 5.954l28.27 22.515a3.344 3.344 0 0 1 1.139 3.506l-9.636 34.832c-.824 2.978 2.487 5.384 5.065 3.68l30.149-19.928a3.34 3.34 0 0 1 3.686-.001z" data-original="#e7a52e" class=""></path><path fill="#ffece3" d="M68.49 462.324 168.906 499.7a76.419 76.419 0 0 0 26.655 4.8h103.487a76.416 76.416 0 0 0 40.899-11.867l129.576-73.104c8.549-7.591 10.133-20.348 3.702-29.8-7.037-10.342-18.678-12.139-31.488-6.082l-126.155 55.547.149-12.007c-1.671-16.8-14.606-30.283-31.322-32.648l-76.824-8.845c-17.722-2.508-26.578-8.446-42.027-17.484a137.686 137.686 0 0 0-69.525-18.842H68.49z" data-original="#ffece3"></path><path fill="#ffddce" d="m441.738 383.646-120.569 53.088c-1.737 1.562-3.587 2.459-5.586 2.459l-120.022 3.816c-9.1 0-18.127-1.625-26.655-4.8L68.49 400.833v61.49L168.906 499.7a76.419 76.419 0 0 0 26.655 4.8h103.487a76.416 76.416 0 0 0 40.899-11.867l129.576-73.104c8.549-7.591 10.133-20.348 3.702-29.8-7.037-10.342-18.678-12.139-31.487-6.083z" data-original="#ffddce"></path><path fill="#7c8b96" d="M83.748 477.565c0 7.304-5.921 13.225-13.225 13.225H48.059c-7.304 0-13.225-5.921-13.225-13.225V334.104c0-7.304 5.921-13.225 13.225-13.225h22.464c7.304 0 13.225 5.921 13.225 13.225z" data-original="#7c8b96"></path><path d="M479.448 385.509c-9.002-13.229-24.248-16.473-40.8-8.688l-115.399 50.812.004-.353a7.77 7.77 0 0 0-.036-.836 44.03 44.03 0 0 0-37.928-39.356l-76.726-8.834c-16.206-2.31-24.183-7.73-39.197-16.518a145.328 145.328 0 0 0-73.312-19.868H91.27v-7.764c0-11.428-9.297-20.726-20.726-20.726H48.081c-11.428 0-20.725 9.298-20.725 20.726v143.461c0 11.428 9.297 20.726 20.725 20.726h22.464c11.02 0 20.033-8.652 20.664-19.516l75.103 27.955a83.663 83.663 0 0 0 29.271 5.27H299.07a83.785 83.785 0 0 0 44.749-12.928l129.412-73.011c9.061-5.117 16.996-24.71 6.217-40.552zm-14.355 27.921-128.809 72.671a8.445 8.445 0 0 0-.33.197A68.802 68.802 0 0 1 299.07 497H195.583a68.686 68.686 0 0 1-24.039-4.329L91.27 462.792v-54.414c0-4.143-3.358-7.5-7.5-7.5s-7.5 3.357-7.5 7.5v69.188a5.732 5.732 0 0 1-5.726 5.726H48.081a5.731 5.731 0 0 1-5.725-5.726V334.105a5.732 5.732 0 0 1 5.725-5.726h22.464a5.732 5.732 0 0 1 5.726 5.726v39.2c0 4.143 3.358 7.5 7.5 7.5s7.5-3.357 7.5-7.5v-16.437h4.785c23.083 0 45.814 6.16 65.738 17.815 15.918 9.304 25.588 15.722 44.763 18.436.064.01.128.018.193.025l76.723 8.834a29.063 29.063 0 0 1 24.777 25.557l-.052 4.158c-44.575-.516-61.532 1.486-90.055-2.678l-13.281-1.939a7.5 7.5 0 1 0-2.167 14.842l13.281 1.939c30.302 4.426 47.779 2.266 99.63 2.836a7.721 7.721 0 0 0 3.022-.636l126.155-55.547c.062-.027.123-.056.184-.084 6.794-3.212 16.14-5.209 22.081 3.521 4.16 6.117 3.291 14.363-1.955 19.483z" fill="#000000" data-original="#000000" class=""></path><path d="M120.239 173.531a17.71 17.71 0 0 1 5.428 20.259c-7.563 19.527 4.877 41.004 25.526 44.213a17.701 17.701 0 0 1 12.048 7.69l-35.12 68.1c-2.108 4.089-1.659 8.881 1.172 12.507 2.831 3.624 7.37 5.219 11.849 4.167l38.307-9.022 14.859 36.441c1.737 4.26 5.671 7.033 10.267 7.237.181.008.361.012.54.012 4.38 0 8.303-2.381 10.329-6.309l32.87-63.736a32.81 32.81 0 0 0 15.42 0l32.87 63.736c2.025 3.928 5.949 6.309 10.329 6.309.179 0 .359-.004.54-.012 4.595-.204 8.529-2.978 10.267-7.237l14.859-36.441 38.307 9.022c4.479 1.055 9.018-.541 11.849-4.167s3.28-8.418 1.172-12.507l-35.12-68.1a17.701 17.701 0 0 1 12.047-7.69c20.692-3.216 33.073-24.726 25.527-44.213a17.707 17.707 0 0 1 5.428-20.259c16.3-13.121 16.293-37.938 0-51.054a17.709 17.709 0 0 1-5.428-20.258c7.561-19.528-4.878-41.004-25.526-44.213a17.709 17.709 0 0 1-14.831-14.83c-3.215-20.692-24.726-33.074-44.213-25.527a17.708 17.708 0 0 1-20.259-5.428c-13.132-16.314-37.95-16.278-51.053 0a17.71 17.71 0 0 1-20.258 5.428c-19.527-7.562-41.005 4.878-44.213 25.527a17.709 17.709 0 0 1-14.83 14.83c-20.692 3.216-33.072 24.725-25.527 44.213a17.706 17.706 0 0 1-5.428 20.258c-16.315 13.132-16.284 37.95-.004 51.054zm85.209 171.949-13.193-32.357a11.588 11.588 0 0 0-13.454-6.937l-34.011 8.011 25.525-49.495c8.046 13.389 24.792 19.518 39.922 13.657a17.703 17.703 0 0 1 20.259 5.429 33.08 33.08 0 0 0 4.435 4.525zm127.794-39.294a11.598 11.598 0 0 0-13.453 6.938l-13.193 32.356-29.483-57.167a32.966 32.966 0 0 0 4.435-4.525 17.715 17.715 0 0 1 20.258-5.429c15.133 5.86 31.878-.27 39.922-13.657l25.525 49.495zM129.644 134.163c11.162-8.984 15.185-23.998 10.011-37.359-4.101-10.589 2.644-22.235 13.842-23.975 14.158-2.2 25.149-13.191 27.349-27.35 1.743-11.216 13.406-17.937 23.975-13.842 13.363 5.174 28.375 1.152 37.359-10.01 7.121-8.847 20.578-8.828 27.684 0 8.983 11.16 23.997 15.183 37.36 10.01 10.585-4.101 22.234 2.644 23.974 13.842 2.2 14.158 13.191 25.149 27.35 27.35 11.22 1.743 17.934 13.407 13.841 23.975-5.174 13.361-1.151 28.375 10.01 37.359 8.845 7.119 8.828 20.578 0 27.683-11.162 8.984-15.185 23.998-10.01 37.36 4.1 10.589-2.645 22.235-13.842 23.975-14.158 2.2-25.149 13.191-27.349 27.35-1.741 11.201-13.386 17.939-23.975 13.841-13.36-5.17-28.375-1.15-37.359 10.011-7.119 8.845-20.578 8.828-27.684 0-8.969-11.143-23.977-15.192-37.36-10.011-10.584 4.102-22.234-2.642-23.974-13.841-2.2-14.158-13.191-25.149-27.35-27.35-11.22-1.743-17.934-13.407-13.841-23.975 5.174-13.362 1.151-28.376-10.011-37.36-8.845-7.12-8.826-20.579 0-27.683z" fill="#000000" data-original="#000000" class=""></path><path d="M161.499 158.163a7.5 7.5 0 0 0-5.993 8.751c9.034 48.298 51.307 83.354 100.516 83.354 56.388 0 102.263-45.875 102.263-102.263S312.41 45.742 256.022 45.742c-49.202 0-91.474 35.049-100.514 83.338a7.5 7.5 0 0 0 14.744 2.76c7.712-41.196 43.783-71.098 85.77-71.098 48.117 0 87.263 39.146 87.263 87.263s-39.146 87.263-87.263 87.263c-41.993 0-78.065-29.906-85.772-71.111-.761-4.072-4.678-6.747-8.751-5.994z" fill="#000000" data-original="#000000" class=""></path><path d="m311.248 120.13-33.359-1.478-11.714-31.271c-3.514-9.377-16.794-9.375-20.307.001l-11.713 31.271-33.36 1.478c-9.992.441-14.119 13.065-6.275 19.313l26.12 20.804-8.903 32.184c-2.67 9.653 8.074 17.456 16.429 11.937l27.856-18.413 27.858 18.414c8.324 5.499 19.107-2.253 16.428-11.938l-8.903-32.184 26.12-20.804c7.835-6.243 3.724-18.873-6.277-19.314zm-31.338 30.096a10.826 10.826 0 0 0-3.695 11.372l6.677 24.135-20.891-13.809-.002-.001a10.832 10.832 0 0 0-11.957.001l-20.891 13.809 6.677-24.134a10.825 10.825 0 0 0-3.695-11.373l-19.588-15.602 25.02-1.108a10.827 10.827 0 0 0 9.672-7.028l8.784-23.45 8.785 23.451a10.828 10.828 0 0 0 9.674 7.027l25.017 1.108z" fill="#000000" data-original="#000000" class=""></path></g></svg>